<?xml version="1.0" standalone="no"?><!DOCTYPE svg PUBLIC "-//W3C//DTD SVG 1.1//EN" "http://www.w3.org/Graphics/SVG/1.1/DTD/svg11.dtd"><svg t="1542005532814" class="icon" style="" viewBox="0 0 1024 1024" version="1.1" xmlns="http://www.w3.org/2000/svg" p-id="4406" xmlns:xlink="http://www.w3.org/1999/xlink" width="200" height="200"><defs><style type="text/css"></style></defs><path d="M512 1024C230.4 1024 0 793.6 0 512S230.4 0 512 0s512 230.4 512 512-230.4 512-512 512z" fill="#9478B5" p-id="4407"></path><path d="M1023.624 526.76v-29.52c-0.832-28.92-4-57.272-9.488-84.832l-313.92-193.504H389.6s-68.024-2.352-68.024 64.976-0.472 53.544-0.472 53.544l-74.336 3.552c-6.464 0.304-33.176 9.56-33.176 9.56-9.264 6.328-19.584 26.848-19.584 37.992v99.368l10.208 35.352c5.728 10.728 16.528 17.888 28.728 19.064 0 0 27.4 1.136 40.8 4.008 8.032 44.6 44.776 44.6 44.776 44.6l2.04 179.776-26.536 7.072 193.448 245.36c4.432 0.248 8.88 0.44 13.344 0.592 1.144 0.024 2.288 0.072 3.432 0.088 3.168 0.088 6.344 0.136 9.528 0.152 275.832-0.952 501.96-222.96 509.848-497.2z" fill="#5C4987" p-id="4408"></path><path d="M705.232 588.4c21.464 0 33.856-14.64 33.856-33.2v-6.752c0-0.576-0.168-1.12-0.2-1.688H278.76c-0.032 0.568-0.2 1.112-0.2 1.688v6.752c0 18.56 17.56 33.744 39.032 33.744" fill="#DFDEDE" p-id="4409"></path><path d="M317.6 593.8c-24.2 0-43.88-17.312-43.88-38.6v-6.744c0-0.264 0.128-1.488 0.176-1.752 0.384-2.344 2.504-4.792 4.88-4.792h460.128a4.834 4.834 0 0 1 4.84 4.616c0.136 0.792 0.2 1.344 0.2 1.928v6.744c0 22.408-15.92 38.048-38.704 38.048-2.688 0-4.856-2.168-4.856-4.856s2.168-4.856 4.856-4.856c17.624 0 29-11.128 29-28.344v-3.584h-450.8l-0.016 3.592c0 15.928 15.336 28.896 34.176 28.896 2.688 0 4.856 2.168 4.856 4.856s-2.176 4.848-4.856 4.848" fill="#474341" p-id="4410"></path><path d="M701.064 313.864c0-6.528 1.976-43.024 1.976-49.552l22.488-0.48c1.424-42.264-59.952-38.36-59.952-38.36l-302.4 2.928c-23.176 0-42.144 14.072-42.144 31.256l-2.88 74.08 0.728 145.392-1.456 171.632 1.256 119.776-26.592 1.216c-1.432 38.872 60.304 35.272 60.304 35.272l304.224-2.696c23.32 0 42.392-12.936 42.392-28.744l2.896-216.312-0.848-226.528v-18.88h0.008z" fill="#F4EDDD" p-id="4411"></path><path d="M600.064 772.696H567.16a6.934 6.934 0 1 1 0-13.872h32.904a6.934 6.934 0 0 1 6.936 6.936 6.93 6.93 0 0 1-6.936 6.936" fill="#474341" p-id="4412"></path><path d="M350.144 814.072c-10.44 0-37.368-1.52-52.4-16.192-7.44-7.256-11-16.536-10.608-27.6a6.928 6.928 0 0 1 6.92-6.688H526.16a6.934 6.934 0 1 1 0 13.872H301.544c0.896 4.048 2.84 7.52 5.872 10.48 14.208 13.896 46.2 12.192 46.544 12.184l304.568-2.808c19.288 0 35.528-10.44 35.528-22.808l2.896-223.992c0.056-3.84 2.912-7.016 7.024-6.848a6.95 6.95 0 0 1 6.848 7.024L707.928 774.6c0 20.144-22.136 36.608-49.336 36.608l-304.16 2.784c-0.24 0-1.792 0.08-4.288 0.08" fill="#474341" p-id="4413"></path><path d="M318.672 777.464a6.934 6.934 0 0 1-6.936-6.936v-150.192a6.934 6.934 0 1 1 13.872 0v150.192a6.93 6.93 0 0 1-6.936 6.936M442.832 714.904H379.68a6.934 6.934 0 1 1 0-13.872h63.152a6.934 6.934 0 1 1 0 13.872M650.696 714.904h-188.424a6.934 6.934 0 1 1 0-13.872h188.424a6.934 6.934 0 1 1 0 13.872M439.904 671.912h-36.992a6.934 6.934 0 1 1 0-13.872h36.992a6.934 6.934 0 1 1 0 13.872M556.176 671.912h-89.84a6.934 6.934 0 1 1 0-13.872h89.84a6.934 6.934 0 1 1 0 13.872M650.696 671.912h-76.52a6.934 6.934 0 1 1 0-13.872h76.52a6.934 6.934 0 1 1 0 13.872M540.296 628.912h-59.96a6.934 6.934 0 1 1 0-13.872h59.96a6.934 6.934 0 0 1 6.936 6.936 6.93 6.93 0 0 1-6.936 6.936M650.696 628.912h-91.904a6.934 6.934 0 1 1 0-13.872h91.896a6.934 6.934 0 0 1 6.936 6.936 6.922 6.922 0 0 1-6.928 6.936" fill="#474341" p-id="4414"></path><path d="M764.768 544.696h-526.72c-22.968 0-41.76-18.792-41.76-41.76V383.76c0-22.96 18.792-41.752 41.76-41.752h526.72c22.968 0 41.76 18.792 41.76 41.752v119.176c0 22.968-18.792 41.76-41.76 41.76" fill="#DFDEDE" p-id="4415"></path><path d="M757.608 551.624h-512.4c-30.792 0-55.848-25.064-55.848-55.848V390.92c0-30.792 25.056-55.848 55.848-55.848h512.408c30.792 0 55.856 25.056 55.856 55.848v104.856c-0.008 30.792-25.064 55.848-55.864 55.848m-512.4-202.68c-23.152 0-41.976 18.832-41.976 41.976v104.856c0 23.152 18.832 41.976 41.976 41.976h512.408c23.152 0 41.976-18.832 41.976-41.976V390.92c0-23.152-18.832-41.976-41.976-41.976H245.208z" fill="#474341" p-id="4416"></path><path d="M757.816 538.008H238.784c-19.728 0-35.728-15.992-35.728-35.728v-22.288a4.634 4.634 0 0 1 4.632-4.632h590.216a4.63 4.63 0 0 1 4.632 4.632v13.288c0.008 24.704-20.016 44.728-44.72 44.728" fill="#AEABAA" p-id="4417"></path><path d="M324.208 484.464a4.86 4.86 0 0 1-4.856-4.816 4.846 4.846 0 0 1 4.816-4.888l477.112-3.376h0.04a4.852 4.852 0 1 1 0.04 9.704l-477.112 3.376h-0.04zM239.152 485.24a4.856 4.856 0 0 1-4.856-4.792 4.862 4.862 0 0 1 4.792-4.912l33.2-0.408c2.784-0.192 4.864 2.112 4.912 4.792a4.862 4.862 0 0 1-4.792 4.912l-33.2 0.408h-0.056z" fill="#474341" p-id="4418"></path><path d="M760.528 427.144c0 12.224-9.912 22.128-22.128 22.128-12.224 0-22.128-9.912-22.128-22.128 0-12.224 9.904-22.128 22.128-22.128 12.216-0.008 22.128 9.904 22.128 22.128" fill="#E9495B" p-id="4419"></path><path d="M738.4 454.12c-14.88 0-26.984-12.104-26.984-26.984 0-14.872 12.104-26.976 26.984-26.976s26.984 12.104 26.984 26.976c0 14.88-12.104 26.984-26.984 26.984m0-44.256c-9.528 0-17.272 7.752-17.272 17.272 0 9.528 7.744 17.28 17.272 17.28 9.528 0 17.272-7.752 17.272-17.28 0-9.52-7.744-17.272-17.272-17.272M226.712 545.4a4.86 4.86 0 0 1-3.88-7.776l45.64-60.576a4.868 4.868 0 0 1 6.8-0.96 4.86 4.86 0 0 1 0.952 6.8l-45.64 60.576c-0.952 1.272-2.4 1.936-3.872 1.936" fill="#474341" p-id="4420"></path><path d="M317.112 524.168c10.928-14.496 21.856-29.008 32.784-43.504" fill="#DFDEDE" p-id="4421"></path><path d="M317.112 529.024a4.86 4.86 0 0 1-3.88-7.776l32.784-43.512a4.86 4.86 0 0 1 6.8-0.96 4.86 4.86 0 0 1 0.952 6.8l-32.776 43.512a4.84 4.84 0 0 1-3.88 1.936" fill="#474341" p-id="4422"></path><path d="M402.624 508.264c6.472-8.584 12.944-17.168 19.408-25.76" fill="#DFDEDE" p-id="4423"></path><path d="M402.624 513.12a4.86 4.86 0 0 1-3.88-7.776l19.416-25.76a4.86 4.86 0 0 1 6.8-0.96 4.866 4.866 0 0 1 0.952 6.8l-19.408 25.76a4.852 4.852 0 0 1-3.88 1.936" fill="#474341" p-id="4424"></path><path d="M376.392 543.08c5.904-7.84 11.816-15.68 17.728-23.52" fill="#DFDEDE" p-id="4425"></path><path d="M376.392 547.928a4.786 4.786 0 0 1-2.92-0.976 4.868 4.868 0 0 1-0.96-6.8l17.728-23.52a4.87 4.87 0 0 1 6.8-0.96 4.86 4.86 0 0 1 0.96 6.8l-17.728 23.52a4.84 4.84 0 0 1-3.88 1.936" fill="#474341" p-id="4426"></path><path d="M466.264 520.48c9.312-12.352 18.616-24.696 27.92-37.048" fill="#DFDEDE" p-id="4427"></path><path d="M466.264 525.336a4.86 4.86 0 0 1-3.88-7.776l27.912-37.056a4.88 4.88 0 0 1 6.8-0.952 4.86 4.86 0 0 1 0.96 6.8L470.144 523.4a4.84 4.84 0 0 1-3.88 1.936" fill="#474341" p-id="4428"></path><path d="M545.216 507.76c7.04-9.336 14.072-18.672 21.112-28.016" fill="#DFDEDE" p-id="4429"></path><path d="M545.208 512.608a4.786 4.786 0 0 1-2.92-0.976 4.868 4.868 0 0 1-0.96-6.8l21.112-28.016a4.868 4.868 0 0 1 6.8-0.96 4.854 4.854 0 0 1 0.96 6.8l-21.112 28.016a4.84 4.84 0 0 1-3.88 1.936" fill="#474341" p-id="4430"></path><path d="M520.68 540.312l16.064-21.32" fill="#DFDEDE" p-id="4431"></path><path d="M520.688 545.168a4.748 4.748 0 0 1-2.912-0.976 4.846 4.846 0 0 1-0.968-6.792l16.064-21.328a4.864 4.864 0 0 1 6.792-0.968 4.836 4.836 0 0 1 0.96 6.792l-16.056 21.328c-0.96 1.28-2.416 1.944-3.88 1.944" fill="#474341" p-id="4432"></path><path d="M622.4 502.904l16.064-21.32" fill="#DFDEDE" p-id="4433"></path><path d="M622.408 507.76a4.86 4.86 0 0 1-3.88-7.776l16.064-21.304a4.862 4.862 0 0 1 6.792-0.968 4.836 4.836 0 0 1 0.96 6.792l-16.056 21.328a4.89 4.89 0 0 1-3.88 1.928" fill="#474341" p-id="4434"></path><path d="M592.824 542.16c7.04-9.336 14.072-18.672 21.112-28.016" fill="#DFDEDE" p-id="4435"></path><path d="M592.824 547.016a4.86 4.86 0 0 1-3.88-7.776l21.112-28.024a4.868 4.868 0 0 1 6.8-0.96 4.854 4.854 0 0 1 0.96 6.8l-21.112 28.024a4.852 4.852 0 0 1-3.88 1.936" fill="#474341" p-id="4436"></path><path d="M679.416 519.304c10.4-13.8 20.8-27.6 31.2-41.408" fill="#DFDEDE" p-id="4437"></path><path d="M679.416 524.16a4.86 4.86 0 0 1-3.88-7.776l31.208-41.408a4.874 4.874 0 0 1 6.8-0.952 4.864 4.864 0 0 1 0.952 6.8l-31.2 41.408a4.856 4.856 0 0 1-3.88 1.928" fill="#474341" p-id="4438"></path><path d="M737.112 539.392c8.176-10.848 16.352-21.704 24.536-32.552" fill="#DFDEDE" p-id="4439"></path><path d="M737.12 544.24a4.748 4.748 0 0 1-2.912-0.976 4.846 4.846 0 0 1-0.968-6.792l24.528-32.56a4.884 4.884 0 0 1 6.8-0.96 4.86 4.86 0 0 1 0.96 6.8L741 542.296c-0.96 1.28-2.408 1.944-3.88 1.944M320.128 343.608c-0.088 0-0.176 0-0.256-0.008a6.936 6.936 0 0 1-6.672-7.184l2.88-76.68c-0.008-21.416 22.016-39.04 49.08-39.04l302.336-3.032c1.088-0.064 36.264-2.184 55.232 16.152 8.176 7.912 12.128 18.248 11.712 30.72a6.928 6.928 0 0 1-6.928 6.704H496.784a6.934 6.934 0 1 1 0-13.872h223.384c-0.904-5.4-3.256-9.88-7.088-13.584-12.104-11.696-36.6-12.824-45.064-12.272l-302.792 3.048c-19.16 0-35.28 11.64-35.28 25.424l-2.88 76.936a6.954 6.954 0 0 1-6.936 6.688" fill="#474341" p-id="4440"></path><path d="M703.04 323.04a6.934 6.934 0 0 1-6.936-6.936v-51.792a6.934 6.934 0 1 1 13.872 0v51.792a6.934 6.934 0 0 1-6.936 6.936M686.416 417.336a9.782 9.782 0 1 0 0 19.568 9.782 9.782 0 1 0 0-19.568" fill="#474341" p-id="4441"></path></svg>