<?xml version="1.0" standalone="no"?><!DOCTYPE svg PUBLIC "-//W3C//DTD SVG 1.1//EN" "http://www.w3.org/Graphics/SVG/1.1/DTD/svg11.dtd"><svg t="1541844964526" class="icon" style="" viewBox="0 0 1024 1024" version="1.1" xmlns="http://www.w3.org/2000/svg" p-id="5333" xmlns:xlink="http://www.w3.org/1999/xlink" width="200" height="200"><defs><style type="text/css"></style></defs><path d="M512 1024C230.4 1024 0 793.6 0 512S230.4 0 512 0s512 230.4 512 512-230.4 512-512 512z" fill="#92BE33" p-id="5334"></path><path d="M1024 512c0-39.32-4.64-77.592-13.136-114.432l-187.4-112.52-19.944-15.616-21.968-39.12-26.096 9.448 4.12 43.176-177.152 53.976-91.464-39.608-165.352 39.616-6.864 17.544 27.464 9.44 12.36 44.528-87.888 32.384s-1.368-29.664-32.952-22.92-17.864 36.416-17.864 36.416L171.8 473.2l19.656 67.848 309.008 482.656c3.848 0.088 7.664 0.296 11.536 0.296 281.6 0 512-230.4 512-512z" fill="#61872E" p-id="5335"></path><path d="M513.624 541.288l-89.48 240.84c-2.024 5.448 0.776 11.568 6.224 13.592s11.568-0.776 13.592-6.224l88.2-237.408c-0.248-0.152-0.512-0.208-0.752-0.408" fill="#8B7A5C" p-id="5336"></path><path d="M434.04 801.624a15.762 15.762 0 0 1-5.496-0.992 15.758 15.758 0 0 1-8.856-8.248 15.724 15.724 0 0 1-0.456-12.088l89.472-240.84a5.234 5.234 0 0 1 6.736-3.088 5.234 5.234 0 0 1 3.088 6.736l-89.464 240.848a5.314 5.314 0 0 0 0.168 4.08 5.276 5.276 0 0 0 7.04 2.608 5.374 5.374 0 0 0 2.792-2.984l87.24-234.856a5.26 5.26 0 0 1 1.072-4.464 5.266 5.266 0 0 1 7.384-0.704c2.2 1.288 3.208 3.88 2.312 6.272L448.88 791.312a15.706 15.706 0 0 1-8.24 8.864 15.796 15.796 0 0 1-6.6 1.448" fill="#474341" p-id="5337"></path><path d="M555.88 551.184c-0.136 0.088-0.264 0.088-0.392 0.16l88.472 238.152c2.024 5.448 8.144 8.248 13.592 6.224s8.248-8.144 6.224-13.592l-90.296-244.76" fill="#8B7A5C" p-id="5338"></path><path d="M653.888 801.624a15.742 15.742 0 0 1-6.592-1.456 15.706 15.706 0 0 1-8.24-8.864l-88.48-238.144a5.236 5.236 0 0 1 3.256-6.8 5.218 5.218 0 0 1 6.52 2.072c0.584 0.936 0.832 1.992 0.768 3.024l87.76 236.2c0.496 1.328 1.48 2.384 2.776 2.984 1.312 0.6 2.76 0.648 4.064 0.168a5.336 5.336 0 0 0 2.984-2.784 5.308 5.308 0 0 0 0.152-4.064l-90.304-244.768a5.252 5.252 0 0 1 9.856-3.632l90.296 244.752a15.64 15.64 0 0 1-0.464 12.08 15.656 15.656 0 0 1-8.856 8.248 15.94 15.94 0 0 1-5.496 0.984" fill="#474341" p-id="5339"></path><path d="M573.032 613.528h-60.784a5.246 5.246 0 0 1 0-10.488h60.784c2.904 0 5.24 2.344 5.24 5.248s-2.336 5.24-5.24 5.24" fill="#474341" p-id="5340"></path><path d="M782.736 412.76l-490.344 115.504-24.008-85.52L747.2 286.192z" fill="#F7BE15" p-id="5341"></path><path d="M292.384 535.76a7.504 7.504 0 0 1-7.208-5.472l-24.008-85.528a7.504 7.504 0 0 1 4.88-9.152l478.824-156.544a7.484 7.484 0 0 1 5.864 0.52 7.5 7.5 0 0 1 3.688 4.584l35.52 126.568a7.46 7.46 0 0 1-0.768 5.832 7.402 7.402 0 0 1-4.736 3.472l-490.328 115.512a6.996 6.996 0 0 1-1.728 0.208m-14.84-88.128l20.128 71.696 475.736-112.072-31.304-111.512-464.56 151.888z" fill="#474341" p-id="5342"></path><path d="M275.648 556.952l-1.504 0.424c-11.92 3.344-24.408-3.664-27.76-15.592l-25.608-91.208c-3.344-11.92 3.672-24.408 15.592-27.76l1.504-0.424c11.92-3.344 24.416 3.664 27.76 15.592l25.608 91.208c3.336 11.928-3.672 24.416-15.592 27.76" fill="#F7BE15" p-id="5343"></path><path d="M268.072 565.712c-13.12 0-25.192-8.672-28.904-21.896l-25.6-91.216c-2.16-7.688-1.176-15.768 2.76-22.784 3.936-7 10.328-12.048 18.024-14.208l1.504-0.424a29.874 29.874 0 0 1 22.784 2.76c7 3.936 12.048 10.336 14.208 18.024l25.6 91.208a29.86 29.86 0 0 1-2.744 22.792c-3.936 7-10.328 12.04-18.024 14.192l-1.504 0.424a29.56 29.56 0 0 1-8.104 1.128m-24.136-136.656c-1.352 0-2.704 0.184-4.032 0.56l-1.512 0.424a14.84 14.84 0 0 0-9.008 7.12 14.892 14.892 0 0 0-1.384 11.392l25.6 91.216c2.24 7.968 10.552 12.624 18.52 10.392l1.488-0.408 0.008-0.008a14.878 14.878 0 0 0 9.016-7.12c1.968-3.52 2.464-7.56 1.376-11.392l-25.6-91.216a14.856 14.856 0 0 0-7.112-9.008 14.822 14.822 0 0 0-7.36-1.952" fill="#474341" p-id="5344"></path><path d="M217.904 548.728l-1.704 0.48c-13.528 3.792-27.704-4.16-31.504-17.696l-10.952-39.016c-3.8-13.528 4.16-27.704 17.696-31.504l1.704-0.472c13.528-3.8 27.704 4.16 31.496 17.688l10.952 39.024c3.792 13.52-4.16 27.696-17.688 31.496" fill="#DD9D00" p-id="5345"></path><path d="M209.296 557.664c-5.6 0-11.144-1.448-16.168-4.272-7.704-4.328-13.264-11.376-15.648-19.856l-10.952-39.016c-4.904-17.536 5.36-35.824 22.888-40.744l1.712-0.472a32.812 32.812 0 0 1 25.088 3.032 32.796 32.796 0 0 1 15.656 19.856l10.952 39.008c4.904 17.544-5.36 35.824-22.896 40.752h-0.008l-1.704 0.472a33.1 33.1 0 0 1-8.92 1.24m8.6-8.936H218h-0.104z m-17.872-81.672c-1.632 0-3.264 0.216-4.864 0.672l-1.712 0.472c-9.568 2.688-15.176 12.68-12.488 22.272l10.952 39.016c1.296 4.616 4.336 8.464 8.56 10.84 4.24 2.376 9.12 2.968 13.712 1.664l1.712-0.472c9.568-2.696 15.176-12.688 12.496-22.264l-10.952-39.016a17.892 17.892 0 0 0-8.56-10.84 17.98 17.98 0 0 0-8.856-2.344" fill="#474341" p-id="5346"></path><path d="M579.2 515.784c0 20.432-16.568 37-37 37-20.44 0-37-16.568-37-37s16.56-37 37-37 37 16.568 37 37" fill="#DACEB6" p-id="5347"></path><path d="M542.208 558.032c-23.288 0-42.248-18.952-42.248-42.248 0-23.288 18.952-42.248 42.248-42.248 23.288 0 42.248 18.952 42.248 42.248 0 23.296-18.96 42.248-42.248 42.248m0-74c-17.512 0-31.752 14.248-31.752 31.752 0 17.512 14.24 31.752 31.752 31.752s31.752-14.24 31.752-31.752c0-17.504-14.24-31.752-31.752-31.752" fill="#474341" p-id="5348"></path><path d="M547.928 499.28c5.312 7.56 6.56 16.136 3.528 24.888-2.232 6.44 7.976 9.208 10.192 2.808a36.57 36.57 0 0 0-4.592-33.032c-3.88-5.528-13.048-0.248-9.128 5.336" fill="#474341" p-id="5349"></path><path d="M689.64 345.28a5.236 5.236 0 0 1-5.016-3.728 5.24 5.24 0 0 1 3.504-6.536l34.92-10.568a5.22 5.22 0 0 1 6.536 3.496 5.236 5.236 0 0 1-3.496 6.536l-34.928 10.568c-0.512 0.16-1.016 0.232-1.52 0.232M452.168 417.184a5.236 5.236 0 0 1-5.016-3.728 5.24 5.24 0 0 1 3.504-6.536l195.568-59.216a5.238 5.238 0 0 1 6.536 3.496 5.24 5.24 0 0 1-3.504 6.536L453.68 416.96a5.208 5.208 0 0 1-1.512 0.224M392.888 435.136a5.236 5.236 0 0 1-5.016-3.728 5.24 5.24 0 0 1 3.504-6.536l38.656-11.704a5.24 5.24 0 0 1 3.032 10.032l-38.656 11.704c-0.512 0.16-1.016 0.232-1.52 0.232" fill="#B77917" p-id="5350"></path><path d="M370.416 401.808l-10.16 2.912-11.28-39.384 5.512-1.584 4.656-1.328z" fill="#DD9D00" p-id="5351"></path><path d="M359.136 362.424l11.272 39.384-10.16 2.904-11.272-39.384 5.512-1.576 4.648-1.328m0-10.488c-0.968 0-1.936 0.136-2.888 0.408l-4.648 1.328-5.512 1.584a10.496 10.496 0 0 0-7.2 12.968l11.272 39.384a10.504 10.504 0 0 0 12.976 7.2l10.16-2.912c2.68-0.768 4.936-2.56 6.288-4.992s1.68-5.304 0.912-7.976l-11.272-39.384a10.486 10.486 0 0 0-10.088-7.608" fill="#474341" p-id="5352"></path><path d="M474.56 323.888l-143.56 41.088c-6.288 1.808-12.904-1.872-14.704-8.16-1.8-6.288 1.872-12.904 8.16-14.704l143.56-41.088c6.288-1.8 12.904 1.872 14.704 8.16 1.8 6.28-1.872 12.904-8.16 14.704" fill="#DD9D00" p-id="5353"></path><path d="M327.744 370.68c-7.448 0-14.328-4.904-16.488-12.408-2.6-9.096 2.68-18.6 11.76-21.192l143.552-41.088c4.384-1.28 9.024-0.728 13.04 1.504a16.972 16.972 0 0 1 8.152 10.248c2.6 9.08-2.68 18.592-11.744 21.192l-143.56 41.088a17.168 17.168 0 0 1-4.712 0.656m143.536-64.872c-0.616 0-1.232 0.088-1.824 0.256l-143.552 41.088a6.682 6.682 0 0 0-4.576 8.24c1.008 3.52 4.736 5.496 8.232 4.552l143.56-41.088a6.674 6.674 0 0 0 4.568-8.224 6.616 6.616 0 0 0-3.176-3.976 6.634 6.634 0 0 0-3.232-0.848m3.288 18.08h0.104-0.104z" fill="#474341" p-id="5354"></path><path d="M817.76 440.768c-11.128 3.368-22.992-2.976-26.36-14.104l-49.04-161.88c-3.368-11.128 2.976-22.992 14.104-26.36 11.128-3.376 22.992 2.976 26.368 14.104l49.04 161.88c3.36 11.128-2.984 22.992-14.112 26.36" fill="#DD9D00" p-id="5355"></path><path d="M811.632 449.168c-12.272 0-23.664-7.976-27.408-20.328l-49.04-161.88c-4.584-15.104 3.984-31.12 19.096-35.704 7.32-2.224 15.04-1.432 21.8 2.168 6.76 3.624 11.704 9.632 13.912 16.928l49.04 161.88c2.208 7.288 1.44 15.032-2.176 21.8-3.624 6.76-9.632 11.696-16.928 13.904-2.76 0.84-5.544 1.232-8.296 1.232m-49.064-204.16c-1.32 0-2.648 0.184-3.936 0.584-7.208 2.184-11.296 9.824-9.12 17.024l49.048 161.88c2.184 7.184 9.776 11.264 17.016 9.104 0.008 0 0.008-0.008 0.008-0.008a13.494 13.494 0 0 0 8.056-6.624 13.614 13.614 0 0 0 1.048-10.376l-49.048-161.896a13.494 13.494 0 0 0-6.624-8.056 13.706 13.706 0 0 0-6.448-1.632" fill="#474341" p-id="5356"></path><path d="M798.088 274.456c15.648-4.536 35.312 15.88 43.928 45.592 8.608 29.712 2.912 57.48-12.736 62.016" fill="#5BC1ED" p-id="5357"></path><path d="M829.28 389.56a7.514 7.514 0 0 1-7.2-5.408 7.486 7.486 0 0 1 5.112-9.28c4.696-1.36 8.424-7.144 10.208-15.88 2.136-10.384 1.2-23.832-2.576-36.856-3.776-13.032-10.16-24.896-17.52-32.528-6.184-6.416-12.408-9.352-17.128-7.944-3.936 1.184-8.12-1.128-9.28-5.112a7.482 7.482 0 0 1 5.112-9.28c10.416-3 21.768 1.24 32.088 11.944 9.128 9.472 16.624 23.24 21.12 38.752 4.504 15.512 5.512 31.16 2.872 44.04-3 14.576-10.36 24.248-20.72 27.256a7.354 7.354 0 0 1-2.088 0.296" fill="#474341" p-id="5358"></path></svg>