<?xml version="1.0" standalone="no"?><!DOCTYPE svg PUBLIC "-//W3C//DTD SVG 1.1//EN" "http://www.w3.org/Graphics/SVG/1.1/DTD/svg11.dtd"><svg t="1542004063428" class="icon" style="" viewBox="0 0 1064 1024" version="1.1" xmlns="http://www.w3.org/2000/svg" p-id="4270" xmlns:xlink="http://www.w3.org/1999/xlink" width="207.8125" height="200"><defs><style type="text/css"></style></defs><path d="M532.098476 755.993406a244.755037 244.755037 0 1 1 244.755037-244.755037 245.097112 245.097112 0 0 1-244.755037 244.755037z m0-421.094969a176.339932 176.339932 0 1 0 176.339933 176.339932 176.51097 176.51097 0 0 0-176.339933-176.339932z" fill="#F683A2" p-id="4271"></path><path d="M671.152177 1023.667503a25.655664 25.655664 0 0 1-25.313589-20.69557 123.147188 123.147188 0 0 0-119.726433-99.030864h-1.53934a123.489264 123.489264 0 0 0-119.726433 96.123222 25.826702 25.826702 0 0 1-32.839251 18.814154A533.295741 533.295741 0 0 1 163.854176 894.876068a26.168778 26.168778 0 0 1-7.867737-18.985191 25.313589 25.313589 0 0 1 8.722925-18.643116A122.805113 122.805113 0 0 0 46.180196 648.239616a26.510853 26.510853 0 0 1-20.353494-2.223491 26.339815 26.339815 0 0 1-12.314719-17.103776A543.729044 543.729044 0 0 1 0 511.238369a533.808854 533.808854 0 0 1 15.222361-124.344453 25.99774 25.99774 0 0 1 12.314719-17.103776 25.99774 25.99774 0 0 1 20.524531-1.881415 122.976151 122.976151 0 0 0 120.75266-206.955692 25.484626 25.484626 0 0 1 0-37.628307A534.150929 534.150929 0 0 1 378.677604 1.716877a26.168778 26.168778 0 0 1 20.524532 2.565566 25.655664 25.655664 0 0 1 11.972643 17.103777 123.489264 123.489264 0 0 0 119.726433 97.491524 123.318226 123.318226 0 0 0 119.726433-97.8336A25.655664 25.655664 0 0 1 684.151046 1.374802a536.37442 536.37442 0 0 1 220.1256 129.646623 25.655664 25.655664 0 0 1-1.368303 37.970383 122.976151 122.976151 0 0 0 116.476716 210.718522 26.510853 26.510853 0 0 1 20.695569 2.394529 25.99774 25.99774 0 0 1 12.143681 17.103776 524.743853 524.743853 0 0 1-4.789057 243.044659 24.800475 24.800475 0 0 1-12.656794 17.103776 25.655664 25.655664 0 0 1-20.695569 1.710378 122.976151 122.976151 0 0 0-123.83134 206.442578 25.826702 25.826702 0 0 1 8.38085 18.985192 25.99774 25.99774 0 0 1-8.38085 18.814154 534.150929 534.150929 0 0 1-212.086824 118.529168 25.826702 25.826702 0 0 1-7.012548-0.171037z m-145.895211-171.037762h2.052453a175.313706 175.313706 0 0 1 161.117571 112.884923 478.905732 478.905732 0 0 0 147.776626-82.611239 174.287479 174.287479 0 0 1 167.274931-278.620514 471.893184 471.893184 0 0 0 9.407077-93.044542 481.129223 481.129223 0 0 0-6.157359-76.282842 174.287479 174.287479 0 0 1-157.183703-284.606835 484.378941 484.378941 0 0 0-155.644363-91.847278 175.142668 175.142668 0 0 1-162.485874 111.345583 175.484743 175.484743 0 0 1-162.314835-110.83247 484.036865 484.036865 0 0 0-146.408324 85.518881 174.116441 174.116441 0 0 1-162.998987 279.304665A481.129223 481.129223 0 0 0 51.311328 511.238369a461.801956 461.801956 0 0 0 7.354624 81.75605 175.655781 175.655781 0 0 1 175.826819 86.545107 175.484743 175.484743 0 0 1-17.103776 195.496162 482.839601 482.839601 0 0 0 145.553135 86.545107 175.142668 175.142668 0 0 1 162.314836-108.951054z" fill="#3D3D3D" p-id="4272"></path></svg>