<?xml version="1.0" standalone="no"?><!DOCTYPE svg PUBLIC "-//W3C//DTD SVG 1.1//EN" "http://www.w3.org/Graphics/SVG/1.1/DTD/svg11.dtd"><svg t="1541844136544" class="icon" style="" viewBox="0 0 1024 1024" version="1.1" xmlns="http://www.w3.org/2000/svg" p-id="5031" xmlns:xlink="http://www.w3.org/1999/xlink" width="200" height="200"><defs><style type="text/css"></style></defs><path d="M512 1024C230.4 1024 0 793.6 0 512S230.4 0 512 0s512 230.4 512 512-230.4 512-512 512z" fill="#3AB394" p-id="5032"></path><path d="M564.12 224.904c-57.928-19.552-92.272-6.176-92.272-6.176s-126.64 30.176-147.096 152.192c-18.824 112.256 67.248 181.2 67.248 181.2l-1.04 249.016 238.104 209.112C854.72 956.92 1024 753.336 1024 512c0-37.44-4.184-73.928-11.912-109.136-75.488-30.976-386.144-158.104-447.968-177.96z" fill="#00875D" p-id="5033"></path><path d="M388.24 552.016v238.568l115.344-82.608 115.352 82.608V547.696" fill="#5BC1ED" p-id="5034"></path><path d="M388.232 796.752c-0.96 0-1.928-0.232-2.824-0.688a6.164 6.164 0 0 1-3.352-5.488V552.008a6.174 6.174 0 1 1 12.352 0v226.568L500 702.96a6.202 6.202 0 0 1 7.184 0l105.584 75.616V547.688a6.172 6.172 0 1 1 12.344 0v242.888a6.174 6.174 0 0 1-3.352 5.488 6.162 6.162 0 0 1-6.424-0.464l-111.744-80.032-111.768 80.032a6.116 6.116 0 0 1-3.592 1.152" fill="#474341" p-id="5035"></path><path d="M499.416 538.928l4.816 162.16 109.888 78.48V536.68z" fill="#0F95BC" p-id="5036"></path><path d="M503.592 686.264a6.174 6.174 0 0 1-6.176-6.176v-88.8a6.174 6.174 0 1 1 12.352 0v88.8a6.18 6.18 0 0 1-6.176 6.176M618.928 741.84a6.158 6.158 0 0 1-3.448-1.064l-98.176-66.528a6.174 6.174 0 0 1-1.656-8.568 6.18 6.18 0 0 1 8.576-1.648L622.4 730.56a6.168 6.168 0 0 1 1.648 8.568 6.19 6.19 0 0 1-5.12 2.712M616.264 697.52a6.158 6.158 0 0 1-3.448-1.064l-95.52-64.736a6.168 6.168 0 0 1-1.648-8.568 6.18 6.18 0 0 1 8.568-1.656l95.52 64.736a6.168 6.168 0 0 1 1.648 8.568 6.168 6.168 0 0 1-5.12 2.72M616.08 648.224a6.158 6.158 0 0 1-3.448-1.064l-87.192-59.08a6.168 6.168 0 0 1-1.648-8.568 6.18 6.18 0 0 1 8.568-1.656l87.192 59.08a6.168 6.168 0 0 1 1.648 8.568 6.18 6.18 0 0 1-5.12 2.72" fill="#474341" p-id="5037"></path><path d="M681.408 405.056c0 99.408-80.592 180-180 180s-180-80.592-180-180 80.592-180 180-180 180 80.592 180 180" fill="#F7BE15" p-id="5038"></path><path d="M501.408 591.232c-102.656 0-186.168-83.528-186.168-186.176s83.52-186.168 186.168-186.168 186.168 83.512 186.168 186.16-83.52 186.184-186.168 186.184m0-360c-95.848 0-173.824 77.968-173.824 173.824s77.968 173.824 173.824 173.824 173.832-77.976 173.832-173.832-77.984-173.816-173.832-173.816" fill="#474341" p-id="5039"></path><path d="M646.232 465.656c-0.688 0-1.392-0.12-2.08-0.368a6.168 6.168 0 0 1-3.728-7.888c7.512-20.968 10.168-43.776 7.688-65.96a6.158 6.158 0 0 1 5.44-6.816c3.52-0.376 6.44 2.056 6.816 5.44a160.59 160.59 0 0 1-8.328 71.504 6.17 6.17 0 0 1-5.808 4.088M650.56 376.464a6.18 6.18 0 0 1-5.976-4.672c-16.224-64.416-76.272-111.216-142.784-111.24a6.19 6.19 0 0 1-6.176-6.176 6.18 6.18 0 0 1 6.176-6.176c72.088 0.056 137.168 50.76 154.752 120.584a6.174 6.174 0 0 1-5.992 7.68M501.808 567.296c-87.968 0-159.544-71.576-159.544-159.544 0-52.752 26.04-102.032 69.656-131.824a6.162 6.162 0 0 1 8.568 1.608 6.17 6.17 0 0 1-1.608 8.576c-40.24 27.496-64.272 72.968-64.272 121.632 0 81.168 66.04 147.208 147.208 147.208a6.172 6.172 0 0 1 6.176 6.168 6.196 6.196 0 0 1-6.184 6.176" fill="#B77917" p-id="5040"></path><path d="M501.8 291.488l32.36 65.56 72.344 10.512-52.352 51.032 12.368 72.056-64.72-34.016-64.712 34.016 12.368-72.056-52.352-51.032 72.344-10.512z" fill="#DD9D00" p-id="5041"></path><path d="M501.8 291.488l32.36 65.56 72.344 10.512-52.352 51.032 12.36 72.056-64.712-34.016-64.712 34.016 12.36-72.056-52.352-51.032 72.344-10.512 32.36-65.56m0-12.336a12.348 12.348 0 0 0-11.064 6.88l-29.488 59.744-65.928 9.584a12.34 12.34 0 0 0-6.84 21.048l47.712 46.496-11.264 65.664a12.364 12.364 0 0 0 4.904 12.072 12.348 12.348 0 0 0 12.992 0.936l58.968-31.008 58.968 31.008a12.348 12.348 0 0 0 12.992-0.936 12.336 12.336 0 0 0 4.904-12.064l-11.264-65.664 47.704-46.496a12.346 12.346 0 0 0 3.12-12.656 12.326 12.326 0 0 0-9.96-8.392l-65.928-9.584-29.488-59.744a12.256 12.256 0 0 0-11.04-6.888" fill="#474341" p-id="5042"></path></svg>