<?xml version="1.0" standalone="no"?><!DOCTYPE svg PUBLIC "-//W3C//DTD SVG 1.1//EN" "http://www.w3.org/Graphics/SVG/1.1/DTD/svg11.dtd"><svg t="1541846698576" class="icon" style="" viewBox="0 0 1024 1024" version="1.1" xmlns="http://www.w3.org/2000/svg" p-id="5789" xmlns:xlink="http://www.w3.org/1999/xlink" width="200" height="200"><defs><style type="text/css"></style></defs><path d="M512 1024C230.4 1024 0 793.6 0 512S230.4 0 512 0s512 230.4 512 512-230.4 512-512 512z" fill="#3AB394" p-id="5790"></path><path d="M1024 512c0-35.96-3.8-71.056-10.944-104.968L601.824 187.016h-131.2c-1.576-0.136-60.424-14.728-55.248 42.84 0.248 2.696 20.952 8.664 17.272 19.704-30.984 92.8-82.864 178.64-82.864 178.64l-5.528 211.248v171.168l145.272 212.808c7.456 0.328 14.936 0.576 22.472 0.576 281.6 0 512-230.4 512-512z" fill="#00875D" p-id="5791"></path><path d="M655.96 403.152c-16.792-28.008-54.016-133-67.456-141.752l-0.976-19.928h-156.232l-0.976 19.928c-13.44 8.76-50.664 113.744-67.456 141.752-10.424 17.384-15.88 36.904-15.88 56.776v333.824c0 23.64 20.768 42.808 46.376 42.808h232.112c25.616 0 46.376-19.168 46.376-42.808V459.928c-0.008-19.872-5.464-39.392-15.888-56.776" fill="#F7BE15" p-id="5792"></path><path d="M625.464 842.896H393.352c-29.056 0-52.712-22.048-52.712-49.144V459.928c0-20.96 5.8-41.712 16.784-60.04 6.776-11.312 17.608-37.048 28.096-61.936 19.424-46.144 30.392-70.888 38.592-79.512l0.848-17.296a6.33 6.33 0 0 1 6.328-6.016h156.232a6.322 6.322 0 0 1 6.32 6.016l0.848 17.296c8.2 8.624 19.168 33.376 38.592 79.512 10.488 24.888 21.32 50.624 28.096 61.936 10.984 18.32 16.784 39.08 16.784 60.04v333.816c0.008 27.096-23.632 49.152-52.696 49.152M437.32 247.8l-0.68 13.904a6.322 6.322 0 0 1-2.872 4.984c-6.352 4.416-24.536 47.608-36.576 76.184-11.136 26.456-21.656 51.448-28.912 63.52-9.8 16.36-14.968 34.872-14.968 53.528v333.816c0 20.112 17.96 36.48 40.04 36.48h232.112c22.08 0 40.04-16.368 40.04-36.48V459.928c0-18.664-5.176-37.168-14.968-53.528-7.248-12.072-17.768-37.064-28.912-63.52-12.04-28.576-30.216-71.768-36.584-76.192-1.608-1.112-2.768-3.024-2.856-4.976l-0.688-13.904H437.32v-0.008z" fill="#474341" p-id="5793"></path><path d="M665.04 681.104H353.472s-8.232-241.672 3.312-248.376c6.84-3.976 303.704-4.496 303.704-4.496 6.328 13.056 4.552 36.136 4.552 36.136v216.736z" fill="#F4EDDD" p-id="5794"></path><path d="M595.832 240.832h-172.848a7.526 7.526 0 0 1-7.504-7.504v-30.744a7.526 7.526 0 0 1 7.504-7.504h172.848a7.53 7.53 0 0 1 7.504 7.504v30.744a7.526 7.526 0 0 1-7.504 7.504" fill="#DFDEDE" p-id="5795"></path><path d="M590.112 247.168h-161.4c-10.776 0-19.56-8.776-19.56-19.56v-19.304c0-10.784 8.776-19.56 19.56-19.56h161.4c10.776 0 19.56 8.776 19.56 19.56v19.304c-0.008 10.784-8.784 19.56-19.56 19.56m-161.4-45.752a6.9 6.9 0 0 0-6.896 6.896v19.304a6.9 6.9 0 0 0 6.896 6.896h161.4a6.9 6.9 0 0 0 6.896-6.896v-19.304a6.896 6.896 0 0 0-6.896-6.896h-161.4z" fill="#474341" p-id="5796"></path><path d="M452.288 229.168a4.426 4.426 0 0 1-4.432-4.432v-13.56c0-2.456 1.976-4.432 4.432-4.432s4.432 1.984 4.432 4.432v13.56a4.42 4.42 0 0 1-4.432 4.432M490.368 229.168a4.426 4.426 0 0 1-4.432-4.432v-13.56c0-2.456 1.976-4.432 4.432-4.432s4.432 1.984 4.432 4.432v13.56a4.432 4.432 0 0 1-4.432 4.432M528.456 229.168a4.426 4.426 0 0 1-4.432-4.432v-13.56c0-2.456 1.976-4.432 4.432-4.432s4.432 1.984 4.432 4.432v13.56a4.432 4.432 0 0 1-4.432 4.432M566.528 229.168a4.426 4.426 0 0 1-4.432-4.432v-13.56c0-2.456 1.976-4.432 4.432-4.432s4.432 1.984 4.432 4.432v13.56a4.42 4.42 0 0 1-4.432 4.432M623.248 432.672H350.144a4.426 4.426 0 0 1-4.432-4.432c0-2.456 1.984-4.432 4.432-4.432h273.104c2.456 0 4.432 1.984 4.432 4.432a4.426 4.426 0 0 1-4.432 4.432M669.656 685.536H385.84a4.432 4.432 0 1 1 0-8.864h283.816c2.456 0 4.432 1.984 4.432 4.432s-1.976 4.432-4.432 4.432M458.136 266.232a4.432 4.432 0 0 1-4.432-4.408 4.426 4.426 0 0 1 4.408-4.456l77.92-0.472h0.032c2.432 0 4.416 1.968 4.432 4.408s-1.96 4.44-4.408 4.456l-77.928 0.472h-0.024zM401.912 409.784c-0.544 0-1.112-0.104-1.656-0.328a4.426 4.426 0 0 1-2.456-5.76l26.144-64.792a4.446 4.446 0 0 1 5.768-2.456 4.434 4.434 0 0 1 2.448 5.768l-26.144 64.792a4.424 4.424 0 0 1-4.104 2.776M434.928 329.736c-0.544 0-1.112-0.104-1.656-0.328a4.426 4.426 0 0 1-2.456-5.76c0.632-1.568 0.888-2.32 1.256-3.36 0.824-2.344 2.096-6.024 8.568-22.064a4.44 4.44 0 0 1 5.768-2.456 4.44 4.44 0 0 1 2.456 5.768c-6.352 15.76-7.616 19.352-8.416 21.672-0.4 1.152-0.696 2-1.4 3.752a4.454 4.454 0 0 1-4.12 2.776M387.632 813.464a4.426 4.426 0 0 1-4.432-4.432v-34.08c0-2.456 1.976-4.432 4.432-4.432s4.432 1.984 4.432 4.432v34.08a4.426 4.426 0 0 1-4.432 4.432M387.632 761.36a4.426 4.426 0 0 1-4.432-4.432v-56.592c0-2.456 1.976-4.432 4.432-4.432s4.432 1.976 4.432 4.432v56.592a4.426 4.426 0 0 1-4.432 4.432M554.552 734.792a4.426 4.426 0 0 1-3.968-2.456 4.452 4.452 0 0 1 1.984-5.952l59.448-29.648c2.192-1.056 4.848-0.208 5.952 1.984a4.448 4.448 0 0 1-1.992 5.952l-59.44 29.656a4.4 4.4 0 0 1-1.984 0.464M488.632 767.672a4.426 4.426 0 0 1-3.968-2.456 4.452 4.452 0 0 1 1.984-5.952l49.792-24.832a4.466 4.466 0 0 1 5.952 1.992 4.436 4.436 0 0 1-1.992 5.944l-49.792 24.84c-0.632 0.32-1.304 0.464-1.976 0.464M544.016 778.952a4.448 4.448 0 0 1-3.92-2.36 4.43 4.43 0 0 1 1.84-5.992l77.36-41.048a4.432 4.432 0 0 1 4.144 7.832l-77.352 41.048c-0.656 0.352-1.368 0.52-2.072 0.52M492.312 806.376a4.44 4.44 0 0 1-3.92-2.36 4.43 4.43 0 0 1 1.84-5.992l33.464-17.752a4.44 4.44 0 0 1 5.992 1.84 4.428 4.428 0 0 1-1.84 5.992l-33.456 17.752c-0.664 0.352-1.376 0.52-2.08 0.52" fill="#474341" p-id="5797"></path><path d="M588.368 543.048c0 52.824-43.584 95.648-97.352 95.648s-97.352-42.824-97.352-95.648 43.584-95.648 97.352-95.648 97.352 42.824 97.352 95.648" fill="#EC7E13" p-id="5798"></path><path d="M474.024 638.92c-0.144 0-0.272-0.008-0.408-0.016-48.488-4.36-78.44-34.832-82.152-83.608-3.144-41.384 11.864-74.904 42.256-94.408 33.088-21.224 80.288-22.704 114.784-3.6 25.728 14.248 39.72 37.328 39.408 65a4.46 4.46 0 0 1-4.464 4.416h-0.048a4.472 4.472 0 0 1-4.416-4.512c0.272-24.232-12.096-44.512-34.808-57.088-31.752-17.568-75.168-16.224-105.632 3.304-19.448 12.48-41.864 37.576-38.16 86.216 3.392 44.632 29.68 71.4 74.04 75.392a4.468 4.468 0 0 1 4.048 4.848 4.466 4.466 0 0 1-4.448 4.056" fill="#474341" p-id="5799"></path><path d="M434.568 536.504c3.256 0 3.272-5.072 0-5.072-3.264 0-3.272 5.072 0 5.072M429.352 573.72c3.256 0 3.272-5.072 0-5.072-3.256 0.008-3.264 5.072 0 5.072M449.456 585.632c3.256 0 3.272-5.072 0-5.072-3.264 0.008-3.272 5.072 0 5.072M464.888 564.992c3.256 0 3.272-5.072 0-5.072-3.256 0-3.272 5.072 0 5.072M499.416 482.976c7.656 7.504-2.12 18.344-10.696 12.272-4.704-3.328-9.168 4.416-4.512 7.712 7.112 5.032 17.624 3.824 23.192-2.968 5.64-6.88 4.544-17.248-1.672-23.336-4.096-4.024-10.416 2.28-6.312 6.32" fill="#474341" p-id="5800"></path><path d="M612.048 516.72l-144.752 85.912c25.688 42.6 78.488 58.016 118.288 34.4 39.8-23.624 51.544-77.36 26.464-120.312" fill="#EC7E13" p-id="5801"></path><path d="M545.16 652.488c-31.584 0-63.36-17.152-81.68-47.552l-2.328-3.848 152.488-90.504 2.264 3.88c26.248 44.944 13.68 101.648-28.04 126.408-13.264 7.872-27.976 11.616-42.704 11.616m-71.624-48.36c25.152 37.496 73.456 50.584 109.776 29.064 36.296-21.552 47.912-70.248 27.048-110.28l-136.824 81.216z" fill="#474341" p-id="5802"></path><path d="M599.512 524.16l-119.672 71.032c26.816 29.216 65.528 39.56 94.272 22.496 28.736-17.056 38.2-55.992 25.4-93.528" fill="#F7BE15" p-id="5803"></path><path d="M543.376 630.368c-23.088 0-47.632-11.248-66.832-32.16a4.52 4.52 0 0 1-1.136-3.672c0.2-1.328 0.992-2.504 2.152-3.184l119.672-71.032a4.334 4.334 0 0 1 3.824-0.344 4.48 4.48 0 0 1 2.688 2.744c13.784 40.432 2.536 81.064-27.36 98.808-10.032 5.96-21.336 8.84-33.008 8.84m-56.4-34.216c25.672 25.152 59.896 32.504 84.864 17.696 24.952-14.808 34.88-48.392 25.096-82.968l-109.96 65.272z" fill="#474341" p-id="5804"></path><path d="M571.808 621.048a4.446 4.446 0 0 1-3.824-2.168l-33.752-55.952a4.446 4.446 0 0 1 1.512-6.12 4.476 4.476 0 0 1 6.128 1.512l33.752 55.952a4.46 4.46 0 0 1-1.52 6.128c-0.712 0.44-1.504 0.648-2.296 0.648" fill="#474341" p-id="5805"></path><path d="M600.168 576.52c-0.272 0-0.544-0.024-0.824-0.072l-62.096-11.416a4.482 4.482 0 0 1-3.592-5.208c0.456-2.424 2.72-4 5.208-3.592l62.096 11.416a4.486 4.486 0 0 1 3.592 5.208 4.474 4.474 0 0 1-4.384 3.664" fill="#474341" p-id="5806"></path><path d="M526.8 624.088a4.474 4.474 0 0 1-4.368-5.424l11.984-54.384a4.476 4.476 0 0 1 5.32-3.408 4.462 4.462 0 0 1 3.4 5.32l-11.976 54.392a4.46 4.46 0 0 1-4.36 3.504" fill="#474341" p-id="5807"></path></svg>