<?xml version="1.0" standalone="no"?><!DOCTYPE svg PUBLIC "-//W3C//DTD SVG 1.1//EN" "http://www.w3.org/Graphics/SVG/1.1/DTD/svg11.dtd"><svg t="1541844219645" class="icon" style="" viewBox="0 0 1024 1024" version="1.1" xmlns="http://www.w3.org/2000/svg" p-id="5176" xmlns:xlink="http://www.w3.org/1999/xlink" width="200" height="200"><defs><style type="text/css"></style></defs><path d="M512 1024C230.4 1024 0 793.6 0 512S230.4 0 512 0s512 230.4 512 512-230.4 512-512 512z" fill="#E9495B" p-id="5177"></path><path d="M1024 512c0-34.032-3.44-67.296-9.848-99.52l-388.344-109.648-420.36 2.032s-3.064 33.864-3.064 101.576v317.928l287.36 299.072c7.392 0.312 14.792 0.56 22.256 0.56 281.6 0 512-230.4 512-512z" fill="#AB2D3D" p-id="5178"></path><path d="M504.448 723.248H206.272V308.392h414.864v97.68" fill="#DACEB6" p-id="5179"></path><path d="M504.448 729.2H206.272a5.942 5.942 0 0 1-5.944-5.944V308.392a5.938 5.938 0 0 1 5.944-5.944h414.856a5.942 5.942 0 0 1 5.944 5.944v97.68a5.938 5.938 0 0 1-5.944 5.944 5.942 5.942 0 0 1-5.944-5.944v-91.736H212.216v402.968h292.232a5.95 5.95 0 0 1 0 11.896" fill="#474341" p-id="5180"></path><path d="M211.904 717.48l44.712-58.672h243.808l-0.112 58.672z" fill="#8B7A5C" p-id="5181"></path><path d="M226.72 699.76a4.1 4.1 0 0 1-2.616-0.936 4.148 4.148 0 0 1-0.6-5.848l29.896-36.784a4.136 4.136 0 0 1 3.224-1.536h243.808a4.164 4.164 0 1 1 0 8.328H258.6l-28.648 35.248c-0.824 1-2.024 1.528-3.232 1.528" fill="#474341" p-id="5182"></path><path d="M363.448 314.24l0.056 137.328 50.2-34.384 46.232 30.432V315.24z" fill="#8B7A5C" p-id="5183"></path><path d="M463.912 455.728c-0.848 0-1.704-0.264-2.416-0.776l-47.784-34.216-47.784 34.216a4.2 4.2 0 0 1-4.328 0.32 4.174 4.174 0 0 1-2.264-3.704v-136.056c0-2.304 1.864-4.168 4.168-4.168s4.168 1.856 4.168 4.168v127.952l43.616-31.232a4.196 4.196 0 0 1 4.856 0l43.616 31.232v-129.84c0-2.296 1.864-4.16 4.168-4.16 2.296 0 4.168 1.856 4.168 4.16v137.944a4.16 4.16 0 0 1-2.264 3.704 4.338 4.338 0 0 1-1.92 0.456" fill="#474341" p-id="5184"></path><path d="M412.32 638.8a4.166 4.166 0 0 1-4.168-4.168v-175.2c0-2.304 1.864-4.168 4.168-4.168 2.296 0 4.168 1.856 4.168 4.168v175.208a4.168 4.168 0 0 1-4.168 4.16M293.496 628.064c-9.328 0-16.92-7.584-16.92-16.92 0-9.32 7.592-16.912 16.92-16.912s16.912 7.584 16.912 16.912-7.584 16.92-16.912 16.92m0-25.512c-4.736 0-8.592 3.848-8.592 8.584s3.856 8.592 8.592 8.592 8.592-3.856 8.592-8.592-3.856-8.584-8.592-8.584M341.832 628.064c-9.328 0-16.912-7.584-16.912-16.92 0-9.32 7.584-16.912 16.912-16.912s16.912 7.584 16.912 16.912-7.592 16.92-16.912 16.92m0-25.512c-4.736 0-8.592 3.848-8.592 8.584s3.856 8.592 8.592 8.592c4.736 0 8.592-3.856 8.592-8.592s-3.856-8.584-8.592-8.584" fill="#474341" p-id="5185"></path><path d="M258.328 337.496c-0.04 0.544-0.16 1.064-0.16 1.624v37.312c0 13.384 10.944 24.328 24.328 24.328h0.808c13.384 0 24.336-10.944 24.336-24.328V339.12c0-0.552-0.128-1.072-0.168-1.624h-49.144z" fill="#F4EDDD" p-id="5186"></path><path d="M283.304 403.728h-0.816c-15.056 0-27.304-12.248-27.304-27.304V339.12c0-0.464 0.056-0.92 0.112-1.368 0.2-1.464 1.536-3.224 3.024-3.224h49.144c1.56 0 2.856 1.208 2.968 2.768 0.12 0.912 0.176 1.36 0.176 1.824v37.304c0 15.056-12.248 27.304-27.304 27.304m-22.112-63.256l-0.056 35.952c0 11.776 9.576 21.352 21.352 21.352h0.816c11.776 0 21.352-9.576 21.352-21.352v-35.952h-43.464z" fill="#474341" p-id="5187"></path><path d="M287.768 444.384v-42.816h-9.736v42.816c-14.56 0.48-25.688 3.048-25.688 6.152 0 3.448 13.68 6.24 30.552 6.24s30.56-2.792 30.56-6.24c0-3.104-11.136-5.672-25.688-6.152" fill="#F4EDDD" p-id="5188"></path><path d="M282.904 459.744c-7.872 0-33.536-0.656-33.536-9.208 0-6.28 13.36-8.392 25.688-9v-39.968c0-1.64 1.336-2.976 2.976-2.976h9.736c1.64 0 2.976 1.336 2.976 2.976v39.968c12.328 0.608 25.688 2.728 25.688 9-0.008 8.544-25.664 9.208-33.528 9.208m-26.344-9.208c3.512 1.432 12.552 3.264 26.344 3.264 13.784 0 22.824-1.824 26.336-3.264-2.92-1.184-9.84-2.8-21.568-3.176a2.982 2.982 0 0 1-2.88-2.976v-39.84h-3.784v39.84c0 1.608-1.28 2.92-2.88 2.976-11.728 0.376-18.656 1.992-21.568 3.176m54.184 0.856h0.072-0.072zM235.096 660.288a4.166 4.166 0 0 1-4.168-4.168v-40.28c0-2.296 1.864-4.16 4.168-4.16s4.168 1.856 4.168 4.16v40.28a4.176 4.176 0 0 1-4.168 4.168M235.096 599.952a4.166 4.166 0 0 1-4.168-4.168v-98.76c0-2.304 1.864-4.16 4.168-4.16s4.168 1.856 4.168 4.16v98.76a4.176 4.176 0 0 1-4.168 4.168" fill="#474341" p-id="5189"></path><path d="M500.96 406.24h311.616v317.016H500.96z" fill="#EBDBB9" p-id="5190"></path><path d="M812.544 729.2H500.928a5.942 5.942 0 0 1-5.944-5.944V406.232a5.942 5.942 0 0 1 5.944-5.944h311.616a5.942 5.942 0 0 1 5.944 5.944v317.024a5.942 5.942 0 0 1-5.944 5.944m-305.672-11.896H806.6v-305.12H506.872v305.12z" fill="#474341" p-id="5191"></path><path d="M534.744 446.032h236.048v238.952H534.744z" fill="#F4EDDD" p-id="5192"></path><path d="M770.784 689.152h-237.64a4.16 4.16 0 0 1-4.16-4.168v-37.248a4.166 4.166 0 0 1 8.328 0v33.096h229.312V475.544c0-2.304 1.864-4.168 4.168-4.168 2.296 0 4.168 1.856 4.168 4.168v209.448a4.176 4.176 0 0 1-4.176 4.16M533.144 606.576a4.166 4.166 0 0 1-4.168-4.168v-159.08c0-2.304 1.864-4.168 4.168-4.168h193.336c2.296 0 4.168 1.856 4.168 4.168a4.166 4.166 0 0 1-4.168 4.168h-189.168v154.928a4.156 4.156 0 0 1-4.168 4.152" fill="#474341" p-id="5193"></path><path d="M645.912 509.912l-24.576-42.568-24.576 42.568h15.512v98.552h18.128v-98.552z" fill="#8B7A5C" p-id="5194"></path><path d="M630.4 612.624h-18.12a4.156 4.156 0 0 1-4.16-4.16v-94.392h-11.36a4.176 4.176 0 0 1-3.608-2.08 4.17 4.17 0 0 1 0-4.168l24.584-42.56c1.488-2.576 5.72-2.576 7.208 0l24.576 42.56a4.166 4.166 0 1 1-3.608 6.248h-11.352v94.392c0 2.296-1.864 4.16-4.16 4.16m-13.96-8.328h9.8v-94.384c0-2.304 1.864-4.168 4.16-4.168h8.312l-17.368-30.072-17.368 30.072h8.304c2.296 0 4.168 1.856 4.168 4.168v94.384h-0.008z" fill="#474341" p-id="5195"></path><path d="M710.36 509.912l-24.576-42.568-24.576 42.568h15.512v98.552h18.128v-98.552z" fill="#8B7A5C" p-id="5196"></path><path d="M694.84 612.624h-18.12a4.156 4.156 0 0 1-4.16-4.16v-94.392h-11.36a4.176 4.176 0 0 1-3.608-2.08 4.17 4.17 0 0 1 0-4.168l24.584-42.56c1.488-2.576 5.72-2.576 7.208 0l24.576 42.56a4.166 4.166 0 1 1-3.608 6.248H699v94.392a4.152 4.152 0 0 1-4.16 4.16m-13.96-8.328h9.8v-94.384c0-2.304 1.864-4.168 4.16-4.168h8.312l-17.368-30.072-17.368 30.072h8.304c2.296 0 4.168 1.856 4.168 4.168v94.384h-0.008z" fill="#474341" p-id="5197"></path><path d="M611.68 629.6h86.6v23.16h-86.6z" fill="#8B7A5C" p-id="5198"></path><path d="M698.288 656.928h-86.6a4.156 4.156 0 0 1-4.16-4.16v-23.16c0-2.296 1.856-4.16 4.16-4.16h86.6c2.296 0 4.168 1.856 4.168 4.16v23.16a4.174 4.174 0 0 1-4.168 4.16m-82.432-8.328h78.272v-14.832h-78.272v14.832z" fill="#474341" p-id="5199"></path></svg>