<?xml version="1.0" standalone="no"?><!DOCTYPE svg PUBLIC "-//W3C//DTD SVG 1.1//EN" "http://www.w3.org/Graphics/SVG/1.1/DTD/svg11.dtd"><svg t="1541844079381" class="icon" style="" viewBox="0 0 1024 1024" version="1.1" xmlns="http://www.w3.org/2000/svg" p-id="4736" xmlns:xlink="http://www.w3.org/1999/xlink" width="200" height="200"><defs><style type="text/css"></style></defs><path d="M512 1024C230.4 1024 0 793.6 0 512S230.4 0 512 0s512 230.4 512 512-230.4 512-512 512z" fill="#3AB394" p-id="4737"></path><path d="M663.992 226.472L320.12 267.208s-37.912-5.424-37.912 62.464 51.44 411.432 51.44 411.432l11.56 33.984c5.368 15.808 19.128 27.256 35.616 29.616l20.52 2.944L491.2 1023.48c6.92 0.272 13.832 0.52 20.8 0.52 281.6 0 512-230.4 512-512 0-33.432-3.344-66.104-9.536-97.784l-350.472-187.744z" fill="#00875D" p-id="4738"></path><path d="M327.6 728.912l3.864 31.024c3.144 25.28 26.4 43.392 51.68 40.24l261.984-32.608c25.28-3.144 43.384-26.4 40.24-51.68l-40.904-328.632 14.536-1.808c25.28-3.152 43.384-26.408 40.24-51.688l-7.72-62.048c-3.144-25.272-26.4-43.384-51.68-40.24l-57.048 7.096c-0.592 0.072-1.12 0.296-1.704 0.392-0.584 0.048-1.152-0.032-1.744 0.04L317.36 271.608c-25.28 3.144-43.392 26.4-40.24 51.68l9.44 75.84" fill="#DACEB6" p-id="4739"></path><path d="M377.376 807.096c-11.68 0-22.984-3.872-32.408-11.2-11.168-8.704-18.28-21.192-20.016-35.144l-3.864-31.032a6.564 6.564 0 0 1 5.704-7.328c3.632-0.496 6.872 2.096 7.328 5.704l3.864 31.032c1.304 10.488 6.656 19.872 15.064 26.416 8.4 6.528 18.808 9.44 29.296 8.128l261.992-32.616c10.488-1.304 19.864-6.648 26.416-15.056 6.544-8.416 9.432-18.816 8.128-29.304l-40.904-328.632 5.696-7.328 14.536-1.808c21.76-2.712 37.248-22.616 34.544-44.36l-7.728-62.048c-1.296-10.488-6.656-19.864-15.064-26.416-8.4-6.528-18.824-9.448-29.296-8.12l-58.448 7.44c-1.048 0.12-1.568 0.12-2.088 0.112L318.184 278.12c-10.488 1.296-19.872 6.656-26.416 15.064-6.536 8.4-9.432 18.808-8.128 29.296l9.44 75.84a6.56 6.56 0 0 1-5.704 7.328c-3.704 0.44-6.88-2.104-7.328-5.704l-9.432-75.84c-1.736-13.968 2.088-27.808 10.792-38.992 8.704-11.168 21.184-18.28 35.144-20.016l263.88-32.688c0.296-0.128 0.928-0.28 1.584-0.352l57.016-7.104c14.032-1.728 27.824 2.096 38.992 10.792 11.168 8.704 18.28 21.192 20.024 35.144l7.72 62.048c3.6 28.944-17.008 55.424-45.936 59.016l-8.024 1 40.096 322.112c1.736 13.968-2.088 27.816-10.8 38.992-8.704 11.176-21.184 18.28-35.152 20.016l-261.984 32.616a54 54 0 0 1-6.592 0.408" fill="#474341" p-id="4740"></path><path d="M400.908 793.404l-31.51 3.716-60.956-516.96 31.51-3.714z" fill="#8B7A5C" p-id="4741"></path><path d="M323.736 704.456a6.566 6.566 0 0 1-6.504-5.752l-3.224-25.856a6.564 6.564 0 0 1 5.704-7.328c3.64-0.504 6.872 2.096 7.328 5.704l3.216 25.856a6.56 6.56 0 0 1-6.52 7.376M316.152 643.544a6.566 6.566 0 0 1-6.504-5.752l-3.152-25.272a6.564 6.564 0 0 1 5.704-7.328c3.656-0.488 6.872 2.096 7.328 5.696l3.144 25.272a6.56 6.56 0 0 1-5.704 7.328c-0.272 0.04-0.544 0.056-0.816 0.056M308.784 584.384a6.566 6.566 0 0 1-6.504-5.752l-3.368-27.016a6.564 6.564 0 0 1 5.704-7.328c3.632-0.488 6.872 2.096 7.328 5.704l3.36 27.008a6.56 6.56 0 0 1-5.704 7.328 6.992 6.992 0 0 1-0.816 0.056M301.28 524.04a6.566 6.566 0 0 1-6.504-5.752l-3.296-26.416a6.56 6.56 0 0 1 5.704-7.328c3.64-0.52 6.872 2.096 7.328 5.704l3.288 26.416a6.56 6.56 0 0 1-6.52 7.376M294.048 466.024a6.566 6.566 0 0 1-6.504-5.752l-3.152-25.288a6.564 6.564 0 0 1 5.704-7.328c3.648-0.472 6.872 2.096 7.328 5.696l3.144 25.288a6.56 6.56 0 0 1-5.704 7.328c-0.272 0.04-0.544 0.056-0.816 0.056" fill="#474341" p-id="4742"></path><path d="M649.968 406.4l21.384-2.664c22.776-2.832 43.992 15.528 47.136 40.808l7.72 62.048c3.144 25.28-12.92 48.28-35.696 51.112l-20.344 2.528" fill="#F7BE15" p-id="4743"></path><path d="M670.16 564.84a4.598 4.598 0 0 1-4.552-4.024 4.598 4.598 0 0 1 3.992-5.128l20.336-2.536c9.712-1.2 18.368-6.616 24.376-15.208 6.112-8.752 8.72-19.68 7.336-30.776l-7.728-62.048c-1.376-11.104-6.576-21.056-14.648-28.048-7.936-6.864-17.672-9.992-27.352-8.776l-21.384 2.656c-2.576 0.36-4.816-1.472-5.128-3.992a4.598 4.598 0 0 1 3.992-5.128l21.384-2.656c12.328-1.512 24.584 2.344 34.512 10.944 9.792 8.48 16.096 20.496 17.744 33.848l7.728 62.048c1.664 13.352-1.504 26.56-8.92 37.176-7.52 10.768-18.448 17.536-30.768 19.072l-20.336 2.536c-0.2 0.032-0.392 0.04-0.584 0.04M396.504 799.616c-2.288 0-4.28-1.72-4.552-4.056l-38.144-320.512a4.57 4.57 0 0 1 4.016-5.104c2.464-0.36 4.808 1.496 5.104 4.016l38.144 320.512a4.59 4.59 0 0 1-4.016 5.104c-0.184 0.032-0.376 0.04-0.552 0.04M354.088 444.328c-2.288 0-4.28-1.72-4.552-4.056l-14.72-123.096a4.588 4.588 0 0 1 4.016-5.104c2.488-0.368 4.808 1.496 5.104 4.016l14.72 123.096a4.594 4.594 0 0 1-4.016 5.104c-0.176 0.032-0.368 0.04-0.552 0.04" fill="#474341" p-id="4744"></path><path d="M375.504 267.4l48 385.616 36.728-43.192 46.208 32.872-48.248-387.608" fill="#E9495B" p-id="4745"></path><path d="M423.504 657.616a4.608 4.608 0 0 1-4.56-4.032l-48-385.616a4.598 4.598 0 0 1 3.992-5.128c2.592-0.352 4.808 1.464 5.128 3.992l46.712 375.248 29.96-35.24a4.59 4.59 0 0 1 6.168-0.768l37.68 26.816-46.952-377.224a4.59 4.59 0 0 1 3.992-5.128c2.592-0.336 4.816 1.472 5.128 3.992l48.24 387.6a4.594 4.594 0 0 1-2.208 4.512 4.648 4.648 0 0 1-5.024-0.2l-42.76-30.432-33.992 39.984a4.616 4.616 0 0 1-3.504 1.624M316.016 678.536c-7.92 0-15.568-2.616-21.912-7.552a35.552 35.552 0 0 1-13.536-23.832c-2.432-19.584 11.52-37.504 31.112-39.936 3.52-0.496 6.872 2.096 7.32 5.712a6.556 6.556 0 0 1-5.704 7.32c-12.4 1.536-21.232 12.888-19.696 25.304a22.512 22.512 0 0 0 8.568 15.08 22.58 22.58 0 0 0 16.728 4.616 22.67 22.67 0 0 0 19.032-16.328c1-3.472 4.608-5.528 8.104-4.52a6.556 6.556 0 0 1 4.528 8.104 35.75 35.75 0 0 1-30.048 25.768c-1.504 0.176-3 0.264-4.496 0.264" fill="#474341" p-id="4746"></path><path d="M308.4 616.832c-17.8 0-33.264-13.288-35.504-31.392-2.44-19.576 11.512-37.504 31.104-39.952 3.608-0.504 6.872 2.096 7.328 5.704a6.558 6.558 0 0 1-5.696 7.328c-12.408 1.552-21.256 12.896-19.704 25.304a22.512 22.512 0 0 0 8.568 15.088 22.582 22.582 0 0 0 16.736 4.616 22.652 22.652 0 0 0 19.016-16.328c0.976-3.472 4.592-5.544 8.104-4.52a6.554 6.554 0 0 1 4.52 8.104 35.746 35.746 0 0 1-30.024 25.768c-1.504 0.192-2.984 0.28-4.448 0.28" fill="#474341" p-id="4747"></path><path d="M301.088 558.12c-17.784 0-33.256-13.288-35.504-31.384-2.432-19.592 11.52-37.512 31.112-39.952 3.536-0.464 6.872 2.096 7.32 5.712a6.556 6.556 0 0 1-5.704 7.32 22.512 22.512 0 0 0-15.08 8.568 22.624 22.624 0 0 0-4.616 16.736c1.552 12.4 12.896 21.264 25.304 19.696a22.67 22.67 0 0 0 19.024-16.328c1-3.472 4.608-5.528 8.104-4.52a6.556 6.556 0 0 1 4.528 8.104 35.75 35.75 0 0 1-30.048 25.768c-1.488 0.192-2.976 0.28-4.44 0.28" fill="#474341" p-id="4748"></path><path d="M293.392 496.408c-17.776 0-33.24-13.28-35.488-31.376-2.432-19.592 11.52-37.512 31.104-39.96 3.616-0.472 6.872 2.096 7.328 5.704a6.558 6.558 0 0 1-5.696 7.328c-12.4 1.552-21.24 12.896-19.704 25.312 1.552 12.4 12.816 21.176 25.296 19.688a22.654 22.654 0 0 0 19.032-16.32 6.552 6.552 0 0 1 8.104-4.52 6.546 6.546 0 0 1 4.52 8.104 35.72 35.72 0 0 1-30.04 25.76c-1.504 0.184-2.984 0.28-4.456 0.28" fill="#474341" p-id="4749"></path><path d="M285.488 432.704c-17.8 0-33.264-13.288-35.52-31.384-2.432-19.592 11.512-37.512 31.112-39.952 3.528-0.496 6.872 2.096 7.32 5.712a6.556 6.556 0 0 1-5.704 7.32 22.512 22.512 0 0 0-15.08 8.568 22.624 22.624 0 0 0-4.616 16.736c1.552 12.4 12.888 21.28 25.312 19.696a22.66 22.66 0 0 0 19.016-16.328 6.536 6.536 0 0 1 8.104-4.52 6.546 6.546 0 0 1 4.52 8.104 35.72 35.72 0 0 1-30.032 25.768c-1.488 0.184-2.968 0.28-4.432 0.28M323.168 735.992c-7.92 0-15.568-2.616-21.92-7.552a35.564 35.564 0 0 1-13.52-23.832c-1.184-9.48 1.4-18.864 7.272-26.408a35.46 35.46 0 0 1 23.824-13.528c3.512-0.48 6.872 2.096 7.32 5.712a6.556 6.556 0 0 1-5.704 7.32 22.512 22.512 0 0 0-15.08 8.568 22.534 22.534 0 0 0-4.6 16.728 22.512 22.512 0 0 0 8.568 15.088 22.544 22.544 0 0 0 16.728 4.616 22.66 22.66 0 0 0 19.024-16.328c0.992-3.472 4.608-5.536 8.104-4.52a6.556 6.556 0 0 1 4.528 8.104 35.74 35.74 0 0 1-30.04 25.768c-1.512 0.168-3.008 0.264-4.504 0.264" fill="#474341" p-id="4750"></path><path d="M671.896 582.592l21.384-2.664c22.776-2.832 43.992 15.528 47.136 40.808l7.72 62.048c3.144 25.28-12.92 48.28-35.696 51.112l-20.344 2.528" fill="#5BC1ED" p-id="4751"></path><path d="M692.088 741.04a4.598 4.598 0 0 1-4.552-4.024 4.598 4.598 0 0 1 3.992-5.128l20.344-2.536c20.32-2.536 34.544-23.168 31.704-45.992l-7.72-62.048c-2.84-22.816-21.672-39.336-42.008-36.824l-21.376 2.656a4.532 4.532 0 0 1-5.128-3.992 4.598 4.598 0 0 1 3.992-5.128l21.376-2.656c25.408-3.112 48.8 16.944 52.272 44.792l7.72 62.048c3.472 27.856-14.328 53.088-39.68 56.248l-20.344 2.536c-0.208 0.04-0.4 0.048-0.592 0.048M668.688 342.736a4.598 4.598 0 0 1-4.552-4.024l-2.4-19.224a4.596 4.596 0 0 1 3.992-5.128c2.456-0.352 4.808 1.464 5.128 3.992l2.4 19.224a4.598 4.598 0 0 1-4.568 5.16M664.04 310.056a4.598 4.598 0 0 1-4.552-4.024l-5.4-43.36a4.598 4.598 0 0 1 3.992-5.128c2.584-0.344 4.808 1.464 5.128 3.992l5.4 43.36a4.598 4.598 0 0 1-4.568 5.16M458.976 620.304a4.598 4.598 0 0 1-4.552-4.024l-6.072-48.744a4.594 4.594 0 0 1 3.992-5.128c2.448-0.376 4.824 1.472 5.128 3.992l6.072 48.744a4.598 4.598 0 0 1-4.568 5.16" fill="#474341" p-id="4752"></path></svg>