<?xml version="1.0" standalone="no"?><!DOCTYPE svg PUBLIC "-//W3C//DTD SVG 1.1//EN" "http://www.w3.org/Graphics/SVG/1.1/DTD/svg11.dtd"><svg t="1541841554956" class="icon" style="" viewBox="0 0 1024 1024" version="1.1" xmlns="http://www.w3.org/2000/svg" p-id="1770" xmlns:xlink="http://www.w3.org/1999/xlink" width="200" height="200"><defs><style type="text/css"></style></defs><path d="M512 1024C230.4 1024 0 793.6 0 512S230.4 0 512 0s512 230.4 512 512-230.4 512-512 512z" fill="#E9495B" p-id="1771"></path><path d="M1024 512c0-32.568-3.208-64.4-9.096-95.32L510.936 197.944l-99.904 97.992-163.784 163.528 29.224 31.76 60.488 58.792 4.752 62.848 57.768 58.12 46.216 62.848-20.392 22.968 1.36 80.416 225.344 167.04C866.088 942.944 1024 745.088 1024 512z" fill="#AB2D3D" p-id="1772"></path><path d="M502 200.642l27.372 27.364-251.35 251.42-27.37-27.362z" fill="#BEAC8A" p-id="1773"></path><path d="M759.474 453.448l-27.364 27.37-251.42-251.348 27.362-27.372z" fill="#BEAC8A" p-id="1774"></path><path d="M495.704 257.656l-164.904 183.2 1.392 134.352 5.544 35.288 51.272 51.568 120.552 55.64 108.088-52.928 44.344-38 16.624-29.856-1.384-48.856 1.384-111.272z" fill="#F3D8C2" p-id="1775"></path><path d="M350.184 626.12c-1.8 0-3.584-0.816-4.728-2.376-9.912-13.336-14.952-26.528-14.952-39.224l-0.16-125.72a5.9 5.9 0 0 1 5.888-5.904h0.008a5.904 5.904 0 0 1 5.896 5.888l0.16 125.728c0 10.12 4.24 20.952 12.608 32.208a5.88 5.88 0 0 1-4.72 9.4M507.264 724.792a5.88 5.88 0 0 1-2.088-0.384c-2.944-1.12-72.712-27.736-123.288-65.72a5.884 5.884 0 0 1-1.168-8.248 5.874 5.874 0 0 1 8.248-1.168c44.448 33.376 106.224 58.544 118.296 63.304 19.272-7.608 164.976-67.168 164.976-128.056l-0.16-122.392a5.906 5.906 0 0 1 5.888-5.904h0.008a5.892 5.892 0 0 1 5.888 5.888l0.168 122.4c0 72.968-167.552 137.2-174.68 139.904a6.02 6.02 0 0 1-2.088 0.376M302.664 405.056c-1.52 0-3.032-0.584-4.192-1.76a5.888 5.888 0 0 1 0.048-8.328l171.28-169.512a5.866 5.866 0 0 1 8.328 0.048 5.888 5.888 0 0 1-0.048 8.328l-171.28 169.52a5.804 5.804 0 0 1-4.136 1.704M266.744 440.608c-1.52 0-3.032-0.584-4.192-1.76a5.888 5.888 0 0 1 0.048-8.328l22.6-22.384a5.906 5.906 0 0 1 8.336 0.04 5.898 5.898 0 0 1-0.04 8.336l-22.624 22.384a5.78 5.78 0 0 1-4.128 1.712M277.56 490.44a5.882 5.882 0 0 1-4.168-1.728l-14.056-14.048a5.89 5.89 0 0 1 0-8.336 5.88 5.88 0 0 1 8.328 0l9.904 9.888L479.24 275.128a5.884 5.884 0 0 1 8.336 0.024 5.88 5.88 0 0 1-0.024 8.328l-205.84 205.24a5.858 5.858 0 0 1-4.152 1.72" fill="#474341" p-id="1776"></path><path d="M485.76 279.56c7.776 7.776 7.776 20.376 0 28.144-7.776 7.776-20.376 7.776-28.144 0" fill="#8B7A5C" p-id="1777"></path><path d="M471.688 317.648a23.934 23.934 0 0 1-16.992-7.024 4.112 4.112 0 0 1 0-5.824 4.128 4.128 0 0 1 5.832 0c6.16 6.136 16.168 6.152 22.32 0 6.144-6.16 6.144-16.168 0-22.32a4.114 4.114 0 0 1 0-5.832 4.128 4.128 0 0 1 5.832 0c9.36 9.36 9.368 24.608 0 33.976a23.946 23.946 0 0 1-16.992 7.024" fill="#474341" p-id="1778"></path><path d="M456.736 308.576c7.776 7.776 7.776 20.376 0 28.144-7.776 7.776-20.376 7.776-28.144 0" fill="#8B7A5C" p-id="1779"></path><path d="M442.656 346.664a23.928 23.928 0 0 1-16.984-7.024 4.104 4.104 0 0 1 0-5.824 4.128 4.128 0 0 1 5.832 0c6.152 6.136 16.16 6.136 22.32 0 6.152-6.16 6.152-16.168 0-22.32a4.114 4.114 0 0 1 0-5.832 4.128 4.128 0 0 1 5.832 0c9.368 9.368 9.368 24.608 0 33.976a23.966 23.966 0 0 1-17 7.024" fill="#474341" p-id="1780"></path><path d="M427.712 337.6c7.776 7.776 7.776 20.376 0 28.144-7.776 7.776-20.376 7.776-28.144 0" fill="#8B7A5C" p-id="1781"></path><path d="M413.64 375.704a23.82 23.82 0 0 1-16.984-7.04c-1.616-1.608-1.608-4.224 0-5.832s4.224-1.608 5.832 0c5.96 5.96 16.352 5.96 22.312 0 2.984-2.976 4.624-6.936 4.624-11.152s-1.648-8.176-4.624-11.152a4.12 4.12 0 0 1 0-5.832 4.128 4.128 0 0 1 5.832 0c4.536 4.528 7.04 10.576 7.04 16.984s-2.504 12.456-7.04 16.984a23.886 23.886 0 0 1-16.992 7.04" fill="#474341" p-id="1782"></path><path d="M398.696 366.624c7.776 7.776 7.776 20.376 0 28.144-7.776 7.776-20.376 7.776-28.144 0" fill="#8B7A5C" p-id="1783"></path><path d="M384.624 404.712a23.934 23.934 0 0 1-16.992-7.024 4.112 4.112 0 0 1 0-5.824 4.128 4.128 0 0 1 5.832 0c6.16 6.136 16.168 6.152 22.32 0 6.144-6.16 6.144-16.168 0-22.32a4.114 4.114 0 0 1 0-5.832 4.128 4.128 0 0 1 5.832 0c9.36 9.36 9.368 24.608 0 33.976a23.946 23.946 0 0 1-16.992 7.024" fill="#474341" p-id="1784"></path><path d="M369.672 395.64c7.776 7.776 7.776 20.376 0 28.144-7.776 7.776-20.376 7.776-28.144 0" fill="#8B7A5C" p-id="1785"></path><path d="M355.592 433.728a23.928 23.928 0 0 1-16.984-7.024 4.104 4.104 0 0 1 0-5.824 4.128 4.128 0 0 1 5.832 0c6.152 6.136 16.16 6.136 22.32 0 6.144-6.16 6.144-16.168 0-22.32-1.616-1.608-1.608-4.224 0-5.832s4.224-1.608 5.832 0c9.368 9.368 9.36 24.616 0 33.976a23.966 23.966 0 0 1-17 7.024" fill="#474341" p-id="1786"></path><path d="M340.648 424.664c7.776 7.776 7.776 20.376 0 28.144-7.776 7.776-20.376 7.776-28.144 0" fill="#8B7A5C" p-id="1787"></path><path d="M326.576 462.768a23.84 23.84 0 0 1-16.992-7.04 4.114 4.114 0 0 1 0-5.832 4.128 4.128 0 0 1 5.832 0c5.976 5.96 16.36 5.96 22.32 0 6.144-6.152 6.144-16.16 0-22.312a4.114 4.114 0 0 1 0-5.832 4.128 4.128 0 0 1 5.832 0c9.368 9.36 9.368 24.616 0 33.968a23.86 23.86 0 0 1-16.992 7.048" fill="#474341" p-id="1788"></path><path d="M311.632 453.688c7.776 7.776 7.776 20.376 0 28.144-7.776 7.776-20.376 7.776-28.144 0" fill="#8B7A5C" p-id="1789"></path><path d="M297.552 491.784a23.984 23.984 0 0 1-16.984-7.032 4.114 4.114 0 0 1 0-5.832 4.128 4.128 0 0 1 5.832 0c6.144 6.144 16.16 6.16 22.32 0 6.144-6.152 6.144-16.168 0-22.32a4.114 4.114 0 0 1 0-5.832 4.128 4.128 0 0 1 5.832 0c9.36 9.36 9.368 24.616 0 33.984a24.02 24.02 0 0 1-17 7.032M731.808 490.176a5.87 5.87 0 0 1-4.168-1.728L471.672 232.472a5.866 5.866 0 0 1 0-8.328l30.432-30.432a5.88 5.88 0 0 1 8.328 0L766.4 449.68a5.866 5.866 0 0 1 0 8.328l-30.432 30.432a5.826 5.826 0 0 1-4.16 1.736m-247.64-261.864l247.64 247.64 22.096-22.104-247.64-247.64-22.096 22.104z" fill="#474341" p-id="1790"></path><path d="M730.336 485.752c-8.016 8.016-20.944 8.08-28.872 0.152-7.936-7.936-7.864-20.856 0.152-28.872" fill="#8B7A5C" p-id="1791"></path><path d="M715.76 495.92c-6.256 0-12.48-2.368-17.208-7.104-9.528-9.528-9.456-25.088 0.152-34.696a4.128 4.128 0 0 1 5.832 0 4.104 4.104 0 0 1 0 5.824c-6.384 6.4-6.464 16.736-0.152 23.04 6.304 6.304 16.656 6.248 23.048-0.152a4.12 4.12 0 0 1 5.824 0 4.104 4.104 0 0 1 0 5.824 24.67 24.67 0 0 1-17.496 7.264" fill="#474341" p-id="1792"></path><path d="M700.728 456.136c-8.016 8.016-20.944 8.08-28.872 0.152-7.936-7.936-7.864-20.856 0.152-28.872" fill="#8B7A5C" p-id="1793"></path><path d="M686.152 466.312c-6.256 0-12.48-2.368-17.208-7.104-9.528-9.528-9.456-25.096 0.152-34.696a4.128 4.128 0 0 1 5.832 0 4.104 4.104 0 0 1 0 5.824c-6.384 6.4-6.464 16.736-0.152 23.04 6.304 6.304 16.648 6.248 23.048-0.152a4.12 4.12 0 0 1 5.824 0 4.104 4.104 0 0 1 0 5.824 24.716 24.716 0 0 1-17.496 7.264" fill="#474341" p-id="1794"></path><path d="M671.112 426.528c-8.016 8.016-20.944 8.08-28.872 0.152-7.936-7.936-7.864-20.856 0.152-28.872" fill="#8B7A5C" p-id="1795"></path><path d="M656.536 436.704c-6.256 0-12.48-2.368-17.208-7.104a24.128 24.128 0 0 1-7.112-17.344 24.592 24.592 0 0 1 7.264-17.36 4.128 4.128 0 0 1 5.832 0 4.112 4.112 0 0 1 0 5.824 16.384 16.384 0 0 0-4.848 11.568 15.98 15.98 0 0 0 4.688 11.472c6.304 6.304 16.648 6.248 23.04-0.152a4.128 4.128 0 0 1 5.832 0 4.104 4.104 0 0 1 0 5.824 24.646 24.646 0 0 1-17.488 7.272" fill="#474341" p-id="1796"></path><path d="M641.504 396.912c-8.016 8.016-20.944 8.08-28.872 0.152-7.936-7.936-7.864-20.856 0.152-28.872" fill="#8B7A5C" p-id="1797"></path><path d="M626.92 407.096c-6.52 0-12.624-2.528-17.208-7.112a24.174 24.174 0 0 1-7.112-17.344 24.592 24.592 0 0 1 7.264-17.36 4.128 4.128 0 0 1 5.832 0 4.12 4.12 0 0 1 0 5.832 16.37 16.37 0 0 0-4.848 11.568 15.994 15.994 0 0 0 4.688 11.472 15.984 15.984 0 0 0 11.376 4.688h0.088a16.408 16.408 0 0 0 11.576-4.848 4.128 4.128 0 0 1 5.832 0 4.114 4.114 0 0 1 0 5.832 24.592 24.592 0 0 1-17.36 7.264h-0.128v0.008z" fill="#474341" p-id="1798"></path><path d="M611.888 367.304c-8.016 8.016-20.944 8.08-28.872 0.152-7.936-7.936-7.864-20.856 0.152-28.872" fill="#8B7A5C" p-id="1799"></path><path d="M597.312 377.488c-6.52 0-12.624-2.528-17.208-7.112a24.174 24.174 0 0 1-7.112-17.344 24.592 24.592 0 0 1 7.264-17.36 4.128 4.128 0 0 1 5.832 0 4.12 4.12 0 0 1 0 5.832 16.37 16.37 0 0 0-4.848 11.568 15.994 15.994 0 0 0 4.688 11.472c3.048 3.048 7.168 4.576 11.464 4.688a16.408 16.408 0 0 0 11.576-4.848 4.128 4.128 0 0 1 5.832 0 4.114 4.114 0 0 1 0 5.832 24.592 24.592 0 0 1-17.36 7.264h-0.128v0.008z" fill="#474341" p-id="1800"></path><path d="M582.28 337.688c-8.016 8.016-20.944 8.08-28.872 0.152-7.936-7.936-7.864-20.856 0.152-28.872" fill="#8B7A5C" p-id="1801"></path><path d="M567.704 347.864c-6.256 0-12.48-2.368-17.208-7.104a24.128 24.128 0 0 1-7.112-17.344 24.592 24.592 0 0 1 7.264-17.36 4.128 4.128 0 0 1 5.832 0 4.112 4.112 0 0 1 0 5.824 16.384 16.384 0 0 0-4.848 11.568 15.98 15.98 0 0 0 4.688 11.472c6.304 6.304 16.656 6.248 23.048-0.152a4.12 4.12 0 0 1 5.824 0 4.104 4.104 0 0 1 0 5.824 24.612 24.612 0 0 1-17.488 7.272" fill="#474341" p-id="1802"></path><path d="M552.664 308.08c-8.016 8.016-20.944 8.08-28.872 0.152-7.936-7.936-7.864-20.856 0.152-28.872" fill="#8B7A5C" p-id="1803"></path><path d="M538.088 318.248c-6.24 0-12.472-2.36-17.208-7.096-9.528-9.528-9.456-25.096 0.152-34.712a4.128 4.128 0 0 1 5.832 0 4.104 4.104 0 0 1 0 5.824c-6.4 6.4-6.464 16.736-0.152 23.056 6.32 6.32 16.648 6.224 23.04-0.152a4.128 4.128 0 0 1 5.832 0 4.12 4.12 0 0 1 0 5.832 24.686 24.686 0 0 1-17.496 7.248M461.568 484.264a4.124 4.124 0 0 1-0.016-8.248l193.832-0.248h0.008a4.124 4.124 0 0 1 0.008 8.248l-193.832 0.248zM415.96 484.328a4.134 4.134 0 0 1-4.128-4.112c0-2.28 1.84-4.128 4.112-4.136l28.504-0.04h0.008c2.272 0 4.112 1.84 4.128 4.112 0 2.28-1.84 4.128-4.112 4.136l-28.504 0.04h-0.008zM340.184 484.432a4.124 4.124 0 0 1-0.016-8.248l61.152-0.088h0.008c2.272 0 4.128 1.848 4.128 4.12 0 2.28-1.848 4.128-4.12 4.128l-61.144 0.088h-0.008z" fill="#474341" p-id="1804"></path><path d="M441.104 381.112c16.744 0.264 30.376 13.992 30.376 30.808v45.088h-30.376v-75.896zM566.576 381.632c-16.744 0.264-30.376 13.992-30.376 30.808v45.088h30.376v-75.896z" fill="#BEAC8A" p-id="1805"></path><path d="M534.792 457.52v-45.088c0-16.968-13.888-30.848-30.848-30.848-16.968 0-30.856 13.888-30.856 30.848v45.088h61.704z" fill="#8B7A5C" p-id="1806"></path><path d="M534.792 461.656h-61.704c-2.28 0-4.128-1.84-4.128-4.128v-45.096c0-19.288 15.688-34.976 34.968-34.976 19.288 0 34.984 15.688 34.984 34.976v45.096a4.116 4.116 0 0 1-4.12 4.128m-57.576-8.256h53.448v-40.968c0-14.736-11.992-26.728-26.728-26.728s-26.72 11.992-26.72 26.728V453.4z" fill="#474341" p-id="1807"></path><path d="M566.744 461.656h-30.376c-2.28 0-4.128-1.84-4.128-4.128v-45.096c0-18.96 15.448-34.632 34.432-34.928 1.168 0.232 2.168 0.408 2.952 1.192 0.784 0.776 1.232 1.832 1.232 2.936v75.904a4.098 4.098 0 0 1-4.112 4.12m-26.248-8.256h22.128v-67.248c-12.528 2.2-22.128 13.216-22.128 26.28V453.4zM469.92 461.656h-30.376c-2.28 0-4.128-1.84-4.128-4.128v-75.904c0-1.104 0.448-2.16 1.232-2.936 0.784-0.784 1.944-0.992 2.952-1.192 18.984 0.296 34.432 15.968 34.432 34.928v45.096a4.1 4.1 0 0 1-4.112 4.136m-26.248-8.256H465.8v-40.968c0-13.064-9.592-24.08-22.128-26.28V453.4z" fill="#474341" p-id="1808"></path><path d="M589.624 579.072c0 41.672-34.984 75.464-78.136 75.464s-78.136-33.784-78.136-75.464c0-41.672 34.984-75.464 78.136-75.464 43.152 0.008 78.136 33.792 78.136 75.464" fill="#FDFBF8" p-id="1809"></path><path d="M512.376 661.424c-45.2 0-81.976-36.768-81.976-81.96s36.768-81.968 81.976-81.968c45.192 0 81.96 36.776 81.96 81.968a4.128 4.128 0 1 1-8.256 0c0-40.648-33.072-73.72-73.712-73.72-40.656 0-73.728 33.072-73.728 73.72s33.072 73.712 73.728 73.712c30.432 0 57.344-18.272 68.552-46.544 0.84-2.12 3.248-3.176 5.352-2.312a4.108 4.108 0 0 1 2.312 5.352c-12.456 31.432-42.384 51.752-76.208 51.752" fill="#474341" p-id="1810"></path><path d="M508.24 502.904h8.312v14.336h-8.312zM508.24 641.68h8.312v14.336h-8.312zM574.592 575.296h14.336v8.312h-14.336zM435.84 575.296h14.336v8.312h-14.336zM545.976 523.672a2.372 2.372 0 0 1-1.2-3.128c0.528-1.192 1.928-1.728 3.128-1.2s1.728 1.928 1.2 3.128a2.378 2.378 0 0 1-3.128 1.2M574.232 545.032c0 1.312-1.056 2.368-2.368 2.368s-2.368-1.056-2.368-2.368 1.056-2.368 2.368-2.368 2.368 1.056 2.368 2.368M454.336 608.744c0 1.312-1.056 2.368-2.368 2.368s-2.368-1.056-2.368-2.368 1.056-2.368 2.368-2.368c1.304 0 2.368 1.056 2.368 2.368M477.352 636.544c0 1.312-1.056 2.368-2.368 2.368s-2.368-1.056-2.368-2.368c0-1.312 1.056-2.368 2.368-2.368s2.368 1.056 2.368 2.368M572.048 616.368c-1.312 0-2.368-1.056-2.368-2.368s1.056-2.368 2.368-2.368 2.368 1.056 2.368 2.368-1.056 2.368-2.368 2.368M547.224 640.552c-1.312 0-2.368-1.056-2.368-2.368s1.056-2.368 2.368-2.368c1.312 0 2.368 1.056 2.368 2.368s-1.056 2.368-2.368 2.368M482.848 523.096a2.362 2.362 0 0 1-2.368-2.368c0-1.312 1.056-2.368 2.368-2.368s2.368 1.056 2.368 2.368-1.056 2.368-2.368 2.368M455.048 546.12c-1.312 0-2.368-1.056-2.368-2.368s1.056-2.368 2.368-2.368 2.368 1.056 2.368 2.368-1.056 2.368-2.368 2.368M519.28 579.416a6.914 6.914 0 0 1-13.824 0 6.914 6.914 0 0 1 13.824 0" fill="#474341" p-id="1811"></path><path d="M509.248 573.304v-24.896c0-1.336 1.408-2.432 3.12-2.432 1.72 0 3.128 1.096 3.128 2.432v24.896M518.064 577.248h45.384c1.376 0 2.496 1.408 2.496 3.12 0 1.72-1.128 3.128-2.496 3.128h-45.384" fill="#474341" p-id="1812"></path><path d="M448.912 833.76h-14.304c-5.984 0-10.88-4.896-10.88-10.88v-79.808c0-5.984 4.896-10.888 10.88-10.888h14.304c5.984 0 10.88 4.896 10.88 10.888v79.808c0 5.984-4.896 10.88-10.88 10.88" fill="#DD9D00" p-id="1813"></path><path d="M441.76 839.656c-13.192 0-23.928-10.736-23.928-23.936v-65.496c0-13.2 10.736-23.936 23.928-23.936s23.936 10.736 23.936 23.936v65.496c0 13.192-10.744 23.936-23.936 23.936m0-101.584c-6.696 0-12.136 5.448-12.136 12.152v65.496c0 6.696 5.44 12.152 12.136 12.152a12.166 12.166 0 0 0 12.152-12.152v-65.496c-0.008-6.696-5.456-12.152-12.152-12.152" fill="#474341" p-id="1814"></path><path d="M566.44 802.432h-12.04a9.198 9.198 0 0 1-9.168-9.168v-50.016a9.198 9.198 0 0 1 9.168-9.168h12.04a9.198 9.198 0 0 1 9.168 9.168v50.016c0 5.04-4.12 9.168-9.168 9.168" fill="#DD9D00" p-id="1815"></path><path d="M560.424 808.328c-11.624 0-21.088-9.456-21.088-21.08V749.28c0-11.624 9.456-21.088 21.088-21.088 11.624 0 21.088 9.456 21.088 21.088v37.968c0 11.616-9.464 21.08-21.088 21.08m0-68.352a9.3 9.3 0 0 0-9.296 9.296v37.968c0 5.12 4.168 9.288 9.296 9.288s9.296-4.168 9.296-9.288v-37.968a9.294 9.294 0 0 0-9.296-9.296M441.76 738.072a5.896 5.896 0 0 1-5.896-5.896v-41.768a5.896 5.896 0 0 1 11.792 0v41.768a5.896 5.896 0 0 1-5.896 5.896" fill="#474341" p-id="1816"></path><path d="M560.424 739.976h-0.04a5.9 5.9 0 0 1-5.856-5.936l0.248-35.384a5.904 5.904 0 0 1 5.896-5.856h0.04a5.896 5.896 0 0 1 5.856 5.936l-0.248 35.384a5.904 5.904 0 0 1-5.896 5.856M562.648 408.264h-23.904a2.952 2.952 0 0 1-2.944-2.944 2.96 2.96 0 0 1 2.944-2.952h23.904a2.946 2.946 0 1 1 0 5.896M562.648 420.736h-23.904a2.952 2.952 0 0 1-2.944-2.944 2.96 2.96 0 0 1 2.944-2.952h23.904a2.946 2.946 0 1 1 0 5.896M562.648 433.208h-23.904a2.952 2.952 0 0 1-2.944-2.944 2.96 2.96 0 0 1 2.944-2.952h23.904a2.946 2.946 0 1 1 0 5.896M562.648 445.68h-23.904a2.952 2.952 0 0 1-2.944-2.944 2.96 2.96 0 0 1 2.944-2.952h23.904a2.946 2.946 0 1 1 0 5.896M465.736 408.264h-23.904a2.952 2.952 0 0 1-2.944-2.944 2.96 2.96 0 0 1 2.944-2.952h23.904a2.946 2.946 0 1 1 0 5.896M465.736 420.736h-23.904a2.952 2.952 0 0 1-2.944-2.944 2.96 2.96 0 0 1 2.944-2.952h23.904a2.946 2.946 0 1 1 0 5.896M465.736 433.208h-23.904a2.952 2.952 0 0 1-2.944-2.944 2.96 2.96 0 0 1 2.944-2.952h23.904a2.946 2.946 0 1 1 0 5.896M465.736 445.68h-23.904a2.952 2.952 0 0 1-2.944-2.944 2.96 2.96 0 0 1 2.944-2.952h23.904a2.946 2.946 0 1 1 0 5.896M687.104 411.264a4.114 4.114 0 0 1-2.912-1.208L655.136 381a4.114 4.114 0 0 1 0-5.832 4.128 4.128 0 0 1 5.832 0l29.056 29.056a4.114 4.114 0 0 1 0 5.832 4.16 4.16 0 0 1-2.92 1.208M647.56 371.712a4.114 4.114 0 0 1-2.912-1.208l-110.632-110.624a4.114 4.114 0 0 1 0-5.832 4.12 4.12 0 0 1 5.824 0l110.64 110.624a4.114 4.114 0 0 1 0 5.832c-0.808 0.8-1.864 1.208-2.92 1.208" fill="#474341" p-id="1817"></path></svg>