<?xml version="1.0" standalone="no"?><!DOCTYPE svg PUBLIC "-//W3C//DTD SVG 1.1//EN" "http://www.w3.org/Graphics/SVG/1.1/DTD/svg11.dtd"><svg t="1541846558695" class="icon" style="" viewBox="0 0 1024 1024" version="1.1" xmlns="http://www.w3.org/2000/svg" p-id="5492" xmlns:xlink="http://www.w3.org/1999/xlink" width="200" height="200"><defs><style type="text/css"></style></defs><path d="M512 1024C230.4 1024 0 793.6 0 512S230.4 0 512 0s512 230.4 512 512-230.4 512-512 512z" fill="#5BC1ED" p-id="5493"></path><path d="M1024 512c0-14.376-0.752-28.576-1.928-42.664l-424.096-81.432-179.776 4.136s-101.8-8.272-101.8 60.672c0 68.952 22.976 206.848 22.976 206.848l-118.936 28.96-23.768 17.928 289.896 316.904c8.424 0.416 16.904 0.648 25.432 0.648 281.6 0 512-230.4 512-512z" fill="#2399BC" p-id="5494"></path><path d="M354.336 739.272c0.288 11.024 9.344 24.568 20.44 24.568 0 0 35.728 7.36 129.264 7.36 81.976 0 125.064-7.36 125.064-7.36 11.088 0 20.152-14.768 20.44-25.792" fill="#0F95BC" p-id="5495"></path><path d="M504.04 778.136c-87.496 0-124.576-6.344-130-7.376-14.848-0.52-26.264-16.768-26.64-31.312a6.936 6.936 0 0 1 6.76-7.112c3.888-0.304 7.016 2.92 7.12 6.752 0.2 7.776 6.784 17.8 13.504 17.8 0.464 0 0.936 0.048 1.392 0.152 0.352 0.072 36.48 7.208 127.872 7.208 80.288 0 123.472-7.184 123.896-7.248 0.392-0.072 0.776-0.112 1.168-0.112 6.456 0 13.296-11.072 13.504-19.032a6.94 6.94 0 0 1 6.936-6.76c0.056 0 0.12 0 0.184 0.008a6.936 6.936 0 0 1 6.76 7.112c-0.384 14.84-12.096 32.056-26.736 32.544-5.432 0.896-47.984 7.376-125.72 7.376" fill="#474341" p-id="5496"></path><path d="M631.752 647.44c107.296 7.728 181.784 24.712 181.784 44.416 0 26.992-139.744 48.872-312.128 48.872S189.28 718.848 189.28 691.856c0-14 37.6-26.624 97.848-35.536" fill="#5BC1ED" p-id="5497"></path><path d="M501.408 747.664c-110.36 0-319.064-11.664-319.064-55.808 0-6.696 0-27.056 103.768-42.4 3.776-0.536 7.32 2.056 7.88 5.856a6.946 6.946 0 0 1-5.856 7.88c-75.032 11.096-91.92 24.752-91.92 28.672 0 14.624 104.816 41.928 305.184 41.928s305.184-27.296 305.184-41.928c0-8.112-42.864-27.944-175.344-37.496a6.946 6.946 0 0 1-6.432-7.416c0.28-3.824 3.704-6.728 7.424-6.432 70.304 5.072 188.232 18.488 188.232 51.344 0.008 44.128-208.696 55.8-319.056 55.8" fill="#474341" p-id="5498"></path><path d="M317.696 413.52c-37.976 95.488 6.896 265.016 67.32 279.136s169.32 6.936 208.208 0c38.888-6.936 105.192-183.376 67.32-279.136" fill="#5BC1ED" p-id="5499"></path><path d="M478.784 707.68c-34.688 0-69.544-2.232-95.344-8.264-19.2-4.496-37.432-22.344-52.728-51.624-31.72-60.736-47.672-165.92-19.464-236.84a6.934 6.934 0 0 1 9.008-3.88 6.936 6.936 0 0 1 3.888 9.008c-26.384 66.328-10.752 168.592 18.864 225.288 13.176 25.232 28.656 41.04 43.584 44.528 58.264 13.608 164.688 7.192 205.408-0.072 2.848-0.512 13.392-4.408 29.408-33.136 30.968-55.528 59.56-168.656 32.672-236.616a6.95 6.95 0 0 1 3.904-9.008c3.544-1.376 7.592 0.328 9.008 3.896 29.752 75.232-2.376 192.76-33.464 248.488-13.584 24.36-26.736 37.832-39.088 40.032-23.792 4.248-69.568 8.2-115.656 8.2" fill="#474341" p-id="5500"></path><path d="M655.64 414.76c0 15.464-75.624 28-168.92 28s-168.92-12.536-168.92-28 75.624-28 168.92-28 168.92 12.536 168.92 28" fill="#0F95BC" p-id="5501"></path><path d="M489.12 449.216c-23.912 0-47.048-0.824-68.768-2.44a6.942 6.942 0 0 1-6.4-7.44c0.28-3.824 3.608-6.52 7.44-6.408 21.368 1.6 44.16 2.4 67.728 2.4 102.16 0 160.648-14.792 164.68-23.08-1.504-2.704-21.904-14.064-94.136-19.296a6.958 6.958 0 0 1-6.424-7.424c0.28-3.824 3.656-6.744 7.424-6.424 106.92 7.752 106.92 27.272 106.92 33.688 0 36.008-171.184 36.424-178.464 36.424" fill="#474341" p-id="5502"></path><path d="M534.056 390.944c-0.12 0-0.24-0.008-0.368-0.008-13.352-0.696-24.176-0.68-37.888-0.672l-6.688 0.008c-1.96 0-3.456-0.392-4.608-0.976-2.776-1.008-4.872-3.624-4.816-6.656 0.08-3.752 2.816-6.784 6.576-6.808 1.4-0.096 2.64 0.2 3.64 0.56h5.88c13.96 0.032 24.904-0.032 38.624 0.68a6.94 6.94 0 1 1-0.352 13.872M400.624 394.616a6.936 6.936 0 0 1-6.888-6.208 6.95 6.95 0 0 1 6.168-7.64c18.096-1.92 37.768-3.232 58.448-3.896 0.072-0.008 0.152-0.008 0.224-0.008a6.938 6.938 0 0 1 0.224 13.872c-20.344 0.664-39.672 1.952-57.432 3.848-0.248 0.008-0.504 0.032-0.744 0.032M348.52 436.176c-0.56 0-1.144-0.072-1.72-0.224-23.872-6.072-34.52-13.224-34.52-23.192 0-8.184 6.496-20.08 62.672-28.768 3.736-0.624 7.328 2.008 7.92 5.792a6.938 6.938 0 0 1-5.792 7.92c-39.56 6.12-48.712 13.072-50.576 15.056 1.336 1.408 6.392 5.344 23.728 9.752a6.93 6.93 0 0 1 5.016 8.432 6.968 6.968 0 0 1-6.728 5.232" fill="#474341" p-id="5503"></path><path d="M649.264 625.6c58.44-10.016 96.84-46.528 100.488-96.272 4.48-61.192-39.144-85.752-73.432-68.128l1.048 30.2c25.848-16.176 44.56 2.376 43.848 34.928s-30.912 53.8-57.904 52.96l-14.048 46.312z" fill="#5BC1ED" p-id="5504"></path><path d="M643.08 633.6a6.948 6.948 0 0 1-6.832-5.768 6.934 6.934 0 0 1 5.672-8.016c58.272-9.984 96.472-43.448 99.688-87.328 1.992-27.216-6.168-48.984-22.392-59.72-12.128-8.032-27.432-8.672-40.952-1.728-3.392 1.776-7.592 0.408-9.344-2.992a6.938 6.938 0 0 1 3-9.344c18.04-9.272 38.592-8.328 54.952 2.488 20.528 13.584 30.952 39.944 28.568 72.312-3.704 50.56-46.304 88.872-111.184 99.984a6.504 6.504 0 0 1-1.176 0.112" fill="#474341" p-id="5505"></path><path d="M663.624 589.92c-0.584 0-1.176-0.008-1.76-0.032a6.932 6.932 0 0 1-6.72-7.152 6.944 6.944 0 0 1 6.936-6.72c0.504-0.008 1.048 0.024 1.576 0.024 12.472 0 25.464-5.304 35.008-14.352 6.376-6.048 14.048-16.48 14.392-31.84 0.352-15.888-3.896-28.296-11.072-32.368-6.336-3.608-14.344-0.184-19.952 3.32-3.232 2.048-7.528 1.048-9.568-2.2a6.934 6.934 0 0 1 2.2-9.56c15.944-9.968 27.384-7.472 34.168-3.624 11.976 6.8 18.568 23.12 18.096 44.744-0.344 15.72-6.992 30.496-18.72 41.6-12.072 11.448-28.624 18.16-44.584 18.16M621.4 570.376a232.428 232.428 0 0 1-17.32 39.008c-3.072 5.504 5.376 10.456 8.456 4.944a246.362 246.362 0 0 0 18.312-41.344c2.016-5.992-7.44-8.552-9.448-2.608M628.704 456.976c5.64 30.888 5.128 61.472-1.408 92.184-1.304 6.144 8.128 8.768 9.448 2.6 6.896-32.416 7.36-64.776 1.408-97.384-1.136-6.192-10.568-3.568-9.448 2.6M703.936 710.68a4.854 4.854 0 0 1-4.824-4.32 4.874 4.874 0 0 1 4.296-5.368c2.16-0.24 5-0.488 8.28-0.776 12.984-1.128 43.384-3.784 49.112-9.848 0.304-0.68-3.368-5.928-38.936-11.016a4.856 4.856 0 0 1-4.12-5.496c0.384-2.664 2.8-4.4 5.496-4.12 38.304 5.48 45.416 11.808 47.32 17.288 0.68 1.952 1.24 5.856-2.704 10.024-7.632 8.072-30.528 10.688-55.328 12.848-3.192 0.28-5.952 0.528-8.056 0.752a3.938 3.938 0 0 1-0.536 0.032M418.416 414.072a4.78 4.78 0 0 1-1.864-0.368c-13.016-5.344-22.232-17.64-23.488-31.312-1.176-12.768 4.472-25.968 15.12-35.296 1.648-1.448 3.424-2.816 5.2-4.184 3.92-3.016 7.624-5.856 9.464-9.4 1.208-2.344 1.768-5.272 1.784-9.536 0.08-12.08-3.816-24.368-10.968-34.592a4.91 4.91 0 0 1 1.216-6.824 4.918 4.918 0 0 1 6.824 1.216c8.296 11.88 12.808 26.176 12.728 40.264-0.024 3.96-0.376 9.128-2.896 13.984-2.84 5.48-7.592 9.128-12.192 12.672-1.608 1.224-3.216 2.456-4.712 3.768-8.288 7.272-12.712 17.368-11.816 27.032 0.912 9.936 7.928 19.24 17.456 23.152a4.904 4.904 0 0 1 2.664 6.4 4.888 4.888 0 0 1-4.52 3.024M499.192 414.072c-0.808 0-1.632-0.2-2.384-0.624-12.752-7.128-21.776-23.224-22.976-40.984-1.112-16.472 4.344-33.624 14.6-45.872 1.64-1.96 3.416-3.816 5.184-5.664 4.016-4.192 7.8-8.152 9.784-13.36 1.752-4.608 2-10.04 2.016-14.256 0.08-17.032-3.936-34.32-11.304-48.664a4.898 4.898 0 0 1 2.12-6.592c2.408-1.272 5.352-0.296 6.592 2.12 8.072 15.72 12.48 34.608 12.392 53.176-0.024 5.048-0.344 11.624-2.664 17.704-2.696 7.072-7.352 11.944-11.864 16.648-1.616 1.696-3.24 3.384-4.744 5.184-8.672 10.36-13.28 24.904-12.328 38.912 0.96 14.328 8.184 27.632 17.976 33.104 2.36 1.32 3.2 4.304 1.888 6.664a4.902 4.902 0 0 1-4.288 2.504M575.872 414.072a4.78 4.78 0 0 1-1.864-0.368c-13.008-5.344-22.232-17.64-23.496-31.312-1.168-12.768 4.48-25.968 15.12-35.296 1.648-1.448 3.416-2.816 5.192-4.168 3.92-3.016 7.632-5.864 9.472-9.408 1.216-2.344 1.768-5.272 1.792-9.536 0.072-12.088-3.824-24.368-10.968-34.592a4.91 4.91 0 0 1 1.216-6.824 4.916 4.916 0 0 1 6.824 1.216c8.288 11.872 12.808 26.176 12.728 40.264-0.024 3.96-0.376 9.128-2.896 13.984-2.84 5.488-7.6 9.136-12.208 12.672-1.608 1.232-3.208 2.456-4.696 3.768-8.288 7.264-12.704 17.368-11.816 27.032 0.912 9.936 7.928 19.24 17.464 23.152a4.904 4.904 0 0 1 2.664 6.4 4.912 4.912 0 0 1-4.528 3.016" fill="#474341" p-id="5506"></path></svg>