<?xml version="1.0" standalone="no"?><!DOCTYPE svg PUBLIC "-//W3C//DTD SVG 1.1//EN" "http://www.w3.org/Graphics/SVG/1.1/DTD/svg11.dtd"><svg t="1541846841334" class="icon" style="" viewBox="0 0 1024 1024" version="1.1" xmlns="http://www.w3.org/2000/svg" p-id="8242" xmlns:xlink="http://www.w3.org/1999/xlink" width="200" height="200"><defs><style type="text/css"></style></defs><path d="M393.39 589.35a18.48 18.48 0 0 1-18.48-18.48V393.13a18.48 18.48 0 0 1 37 0v177.74a18.48 18.48 0 0 1-18.52 18.48zM628.88 589.35a18.48 18.48 0 0 1-18.48-18.48V393.13a18.48 18.48 0 1 1 37 0v177.74a18.48 18.48 0 0 1-18.52 18.48zM836.71 906H187.37a18.48 18.48 0 0 1-18.48-18.48V658.59a18.48 18.48 0 0 1 37 0v210.46h612.34V658.59a18.48 18.48 0 0 1 37 0v228.94A18.48 18.48 0 0 1 836.71 906z" fill="#FF4056" p-id="8243"></path><path d="M746.86 633.72c-43.62 0-84.72-13.07-117.43-37.08-32.71 24-73.81 37.08-117.43 37.08s-84.72-13.07-117.43-37.08c-32.71 24-73.81 37.08-117.43 37.08-99.92 0-181.21-69.93-181.21-155.88v-2.42a18.23 18.23 0 0 1 0.54-5.57l64.44-252.52A131.87 131.87 0 0 1 288.81 118h446.43a131.86 131.86 0 0 1 127.87 99.39l64.32 252.48a17.71 17.71 0 0 1 0.57 4c0 1.32 0.07 2.66 0.07 4 0 85.92-81.29 155.85-181.21 155.85z m-117.43-79.25a18.44 18.44 0 0 1 12.21 4.61c27.61 24.3 65 37.68 105.22 37.68 79.54 0 144.26-53.35 144.26-118.92v-0.93L827.31 226.5a95 95 0 0 0-92.07-71.56H288.81a95 95 0 0 0-92.06 71.52l-63.87 251.38c0 65.57 64.72 118.92 144.26 118.92 40.24 0 77.61-13.38 105.22-37.68a18.47 18.47 0 0 1 24.42 0c27.61 24.3 65 37.68 105.22 37.68s77.61-13.38 105.22-37.68a18.44 18.44 0 0 1 12.21-4.61z" fill="#0897EA" p-id="8244"></path></svg>