<?xml version="1.0" standalone="no"?><!DOCTYPE svg PUBLIC "-//W3C//DTD SVG 1.1//EN" "http://www.w3.org/Graphics/SVG/1.1/DTD/svg11.dtd"><svg t="1541843910753" class="icon" style="" viewBox="0 0 1462 1024" version="1.1" xmlns="http://www.w3.org/2000/svg" p-id="4451" xmlns:xlink="http://www.w3.org/1999/xlink" width="285.546875" height="200"><defs><style type="text/css"></style></defs><path d="M1211.65168072 141.21142578c15.15642473 0 27.76323626 5.00034897 37.89106111 15.0081093C1259.59287778 166.37561011 1264.60735221 179.03186035 1264.60735221 194.181222c0 14.85979388-5.06391242 27.36772796-15.27648926 37.5238037l-635.69405708 635.63755601C603.47366774 877.63284745 590.90216949 882.78857422 575.99999999 882.78857422c-14.88804405 0-27.47366775-5.15572678-37.66505678-15.45305559L220.48791502 549.67211914C210.29652601 539.36772796 205.21142577 526.85979388 205.21142577 512c0-15.15642473 5.00034897-27.81267425 15.11404838-37.96168763C230.38973556 464.03055277 243.01067253 459.03020379 258.15297181 459.03020379c14.92335732 0 27.4877932 5.00034897 37.68624386 15.30473943L575.99999999 754.92654838l597.97956159-598.41744552C1184.1780137 146.21883713 1196.75657431 141.21142578 1211.65168072 141.21142578" p-id="4452"></path></svg>