<?xml version="1.0" standalone="no"?><!DOCTYPE svg PUBLIC "-//W3C//DTD SVG 1.1//EN" "http://www.w3.org/Graphics/SVG/1.1/DTD/svg11.dtd"><svg t="1541843842871" class="icon" style="" viewBox="0 0 1024 1024" version="1.1" xmlns="http://www.w3.org/2000/svg" p-id="1901" xmlns:xlink="http://www.w3.org/1999/xlink" width="200" height="200"><defs><style type="text/css"></style></defs><path d="M739.39674 610.73531c34.237701 0 65.755963 14.183883 88.667445 36.885468 22.754827 22.754827 36.934615 54.047835 36.934615 89.174269 0 68.870622-56.674101 125.584655-125.60206 125.584654-69.5341 0-126.055642-56.714032-126.055642-125.584654 0-14.41221 2.316029-27.932616 6.776073-40.98101l-133.980514-80.581823c-1.55221 2.476779-4.235814 4.756971-6.048091 7.004399l-2.020126 1.569617c-30.82202 30.158542-72.917017 48.60998-119.486393 48.609979-94.329531 0-171.550962-77.203001-171.550962-171.496696 0-94.119635 77.220407-171.565297 171.550962-171.565297 47.215448 0 90.005663 18.922425 121.034508 50.440687h0.470987c1.812277 2.230022 4.49588 4.043323 6.048091 6.28768l133.980514-79.675685c-4.460044-12.806758-6.776073-26.986546-6.776073-40.977938 0-69.327275 56.781608-126.265538 126.055642-126.265538 68.92796 0 125.602061 56.938263 125.60206 126.265538 0 69.345705-56.674101 125.620491-125.60206 125.62049-35.108004 0-66.380533-14.183883-89.102597-36.467723l-0.888732-1.35972-133.320108 79.678756c9.024525 21.184187 14.008799 44.132529 14.008799 68.017726 0 24.060281-4.985298 46.990193-14.008799 67.95015l133.320108 79.69309 0.888732-0.941974 0.264163-0.206825c22.929912-22.493737 53.959781-36.67762 88.839458-36.67762z m49.551954 76.089014c-12.649079-12.617339-30.405299-20.492041-49.551954-20.492041-19.582831 0-37.127106 7.874702-49.705537 20.492041v0.206825c-13.07092 12.614267-20.492041 30.386869-20.492041 49.762874 0 38.71208 31.222359 70.230342 70.198601 70.230342 38.733582 0 70.040923-31.518262 70.040924-70.230342 0-19.376006-7.910538-37.148607-20.488969-49.762874v-0.206825h-0.001024z m-49.551954-491.819221c-38.976243 0-70.198602 31.743517-70.198602 70.422833 0 13.520406 3.642984 26.133649 10.105748 37.162942l0.488393 0.21092c2.230022 4.039228 5.192122 7.439551 8.781865 10.819396l1.117059 1.323884c12.578431 12.855904 30.122706 20.506375 49.705537 20.506375 38.733582 0 70.040923-31.275601 70.040923-70.023517 0-39.150303-31.308365-70.422833-70.040923-70.422833z" fill="#ffffff" p-id="1902"></path></svg>