<?xml version="1.0" standalone="no"?><!DOCTYPE svg PUBLIC "-//W3C//DTD SVG 1.1//EN" "http://www.w3.org/Graphics/SVG/1.1/DTD/svg11.dtd"><svg t="1541846630397" class="icon" style="" viewBox="0 0 1024 1024" version="1.1" xmlns="http://www.w3.org/2000/svg" p-id="5640" xmlns:xlink="http://www.w3.org/1999/xlink" width="200" height="200"><defs><style type="text/css"></style></defs><path d="M512 1024C230.4 1024 0 793.6 0 512S230.4 0 512 0s512 230.4 512 512-230.4 512-512 512z" fill="#3AB394" p-id="5641"></path><path d="M1024 512c0-37.688-4.248-74.416-12.072-109.84l-257.16-114.056-437.496-8.232s-68.864-2.408-68.864 66.272v359.88l11.32 28.888L494.712 1023.56c5.744 0.192 11.488 0.44 17.288 0.44 281.6 0 512-230.4 512-512z" fill="#00875D" p-id="5642"></path><path d="M726.672 741.992H292.144c-26.256 0-47.744-21.488-47.744-47.744V337.392c0-26.256 21.48-47.744 47.744-47.744h434.528c26.256 0 47.744 21.488 47.744 47.744v356.856c0 26.256-21.48 47.744-47.744 47.744" fill="#DACEB6" p-id="5643"></path><path d="M727.016 748.704H291.8c-29.84 0-54.12-24.272-54.12-54.12V337.048c0-29.848 24.28-54.12 54.12-54.12h435.216c29.848 0 54.12 24.272 54.12 54.12v357.536c-0.008 29.848-24.28 54.12-54.12 54.12M291.8 296.368c-22.432 0-40.688 18.256-40.688 40.688v357.536c0 22.432 18.256 40.688 40.688 40.688h435.216c22.432 0 40.688-18.248 40.688-40.688V337.048c0-22.432-18.256-40.688-40.688-40.688H291.8v0.008z" fill="#474341" p-id="5644"></path><path d="M475.912 394.992h-143.368c-29.848 0-54.12-21.008-54.12-46.832v-58.512a6.72 6.72 0 1 1 13.44 0v58.512c0 18.416 18.256 33.4 40.688 33.4h143.368c3.712 0 6.72 3.008 6.72 6.72s-3.016 6.712-6.728 6.712M686.272 394.992h-145.224a6.72 6.72 0 1 1 0-13.44h145.224c22.432 0 40.688-14.984 40.688-33.4V289.64a6.72 6.72 0 1 1 13.44 0v58.512c-0.008 25.832-24.288 46.84-54.128 46.84" fill="#474341" p-id="5645"></path><path d="M539 342.544c0 16.272-13.192 29.464-29.464 29.464s-29.464-13.192-29.464-29.464 13.192-29.464 29.464-29.464 29.464 13.192 29.464 29.464" fill="#8B7A5C" p-id="5646"></path><path d="M509.528 378.728c-19.952 0-36.176-16.224-36.176-36.184 0-19.952 16.224-36.176 36.176-36.176s36.184 16.224 36.184 36.176-16.232 36.184-36.184 36.184m0-58.928c-12.544 0-22.744 10.208-22.744 22.744 0 12.544 10.208 22.752 22.744 22.752 12.544 0 22.752-10.208 22.752-22.752 0-12.544-10.2-22.744-22.752-22.744" fill="#474341" p-id="5647"></path><path d="M539 465.552c0 16.272-13.192 29.464-29.464 29.464s-29.464-13.192-29.464-29.464 13.192-29.464 29.464-29.464 29.464 13.192 29.464 29.464" fill="#8B7A5C" p-id="5648"></path><path d="M509.528 501.736c-19.952 0-36.176-16.224-36.176-36.184 0-19.952 16.224-36.176 36.176-36.176s36.184 16.224 36.184 36.176-16.232 36.184-36.184 36.184m0-58.928c-12.544 0-22.744 10.208-22.744 22.744 0 12.544 10.208 22.752 22.744 22.752 12.544 0 22.752-10.208 22.752-22.752s-10.2-22.744-22.752-22.744M509.408 696.88a6.72 6.72 0 0 1-6.72-6.72v-155.824a6.72 6.72 0 1 1 13.44 0v155.824a6.72 6.72 0 0 1-6.72 6.72" fill="#474341" p-id="5649"></path><path d="M746.688 734.208a6.708 6.708 0 0 1-5.392-2.696l-25.832-34.624H297.816l-28.2 34.832c-2.344 2.888-6.568 3.336-9.448 1s-3.328-6.56-1-9.448l30.216-37.328a6.72 6.72 0 0 1 5.224-2.488H718.84c2.12 0 4.112 1 5.384 2.696l27.848 37.328a6.716 6.716 0 0 1-5.384 10.728M481.576 459.208a3.36 3.36 0 0 1-3.36-3.36v-105.184a3.36 3.36 0 1 1 6.72 0v105.176a3.356 3.356 0 0 1-3.36 3.368M537.488 459.208a3.36 3.36 0 0 1-3.36-3.36v-105.184a3.36 3.36 0 1 1 6.72 0v105.176a3.36 3.36 0 0 1-3.36 3.368" fill="#474341" p-id="5650"></path><path d="M532.464 441.912c-1.152 0-2.28-0.592-2.904-1.656l-44.824-76.32c-0.944-1.6-0.4-3.664 1.192-4.6a3.356 3.356 0 0 1 4.6 1.192l44.824 76.32a3.362 3.362 0 0 1-2.888 5.064" fill="#474341" p-id="5651"></path><path d="M486.024 441.912c-0.632 0-1.264-0.176-1.832-0.544a3.366 3.366 0 0 1-0.976-4.656l44.992-68.92a3.37 3.37 0 0 1 4.648-0.976c1.552 1.016 1.992 3.096 0.976 4.656l-44.992 68.92c-0.64 0.976-1.72 1.52-2.816 1.52M538.152 456.488c20.128 30.768 24.24 66.744 11.632 101.288-1.48 4.064 5.008 5.824 6.48 1.784 13.136-36.008 8.664-74.392-12.312-106.464-2.36-3.608-8.176-0.24-5.8 3.392" fill="#474341" p-id="5652"></path><path d="M746.68 653.152a3.36 3.36 0 0 1-3.36-3.36V622.92a3.36 3.36 0 1 1 6.72 0v26.872a3.35 3.35 0 0 1-3.36 3.36m0-45.68a3.36 3.36 0 0 1-3.36-3.36v-26.88a3.36 3.36 0 1 1 6.72 0v26.88a3.35 3.35 0 0 1-3.36 3.36m0-45.68a3.36 3.36 0 0 1-3.36-3.36V531.56a3.36 3.36 0 1 1 6.72 0v26.872a3.35 3.35 0 0 1-3.36 3.36m0-45.68a3.36 3.36 0 0 1-3.36-3.36V485.88a3.36 3.36 0 1 1 6.72 0v26.872a3.35 3.35 0 0 1-3.36 3.36m0-45.688a3.36 3.36 0 0 1-3.36-3.36v-26.872a3.36 3.36 0 1 1 6.72 0v26.872a3.35 3.35 0 0 1-3.36 3.36m0-45.688a3.36 3.36 0 0 1-3.36-3.36v-26.872a3.36 3.36 0 1 1 6.72 0v26.872a3.35 3.35 0 0 1-3.36 3.36M275.256 664.016a3.36 3.36 0 0 1-3.36-3.36v-26.872a3.36 3.36 0 1 1 6.72 0v26.872a3.36 3.36 0 0 1-3.36 3.36m0-45.68a3.36 3.36 0 0 1-3.36-3.36v-26.88a3.36 3.36 0 1 1 6.72 0v26.88a3.36 3.36 0 0 1-3.36 3.36m0-45.68a3.36 3.36 0 0 1-3.36-3.36v-26.872a3.36 3.36 0 1 1 6.72 0v26.872a3.36 3.36 0 0 1-3.36 3.36m0-45.68a3.36 3.36 0 0 1-3.36-3.36v-26.872a3.36 3.36 0 1 1 6.72 0v26.872a3.36 3.36 0 0 1-3.36 3.36m0-45.688a3.36 3.36 0 0 1-3.36-3.36v-26.872a3.36 3.36 0 1 1 6.72 0v26.872a3.36 3.36 0 0 1-3.36 3.36m0-45.688a3.36 3.36 0 0 1-3.36-3.36v-26.872a3.36 3.36 0 1 1 6.72 0v26.872a3.36 3.36 0 0 1-3.36 3.36" fill="#8B7A5C" p-id="5653"></path><path d="M515.288 342.544c0 2.896-2.352 5.248-5.248 5.248s-5.248-2.352-5.248-5.248 2.352-5.248 5.248-5.248a5.252 5.252 0 0 1 5.248 5.248M514.656 465.552c0 2.896-2.352 5.248-5.248 5.248s-5.248-2.352-5.248-5.248 2.352-5.248 5.248-5.248 5.248 2.352 5.248 5.248" fill="#474341" p-id="5654"></path><path d="M662.4 718.016h32.344c6.096 0 6.112-9.48 0-9.48H662.4c-6.096-0.008-6.112 9.48 0 9.48M591.248 718.016h51.744c6.096 0 6.104-9.48 0-9.48h-51.744c-6.096-0.008-6.104 9.48 0 9.48M668.96 366.856c18.544 4.16 37.928-4.672 46.304-21.912 2.656-5.464-5.512-10.28-8.184-4.784-6.472 13.32-21 20.832-35.6 17.56-5.944-1.344-8.48 7.8-2.52 9.136M648.328 366.968H624.32a4.738 4.738 0 0 1-4.736-4.744 4.742 4.742 0 0 1 4.736-4.744h24.008a4.744 4.744 0 0 1 0 9.488" fill="#8B7A5C" p-id="5655"></path></svg>